<svg xmlns="http://www.w3.org/2000/svg" viewBox="0 0 126 56">
  <g>
    <path style="fill:#FFF;" d="M83,18c-0.1-0.7-0.1-1.4-0.2-2.1c0-0.4-0.2-0.8-0.2-1.2c0-0.1,0-0.2,0-0.3c0-0.1,0-0.2,0-0.3c0,0,0,0,0,0
      c0-0.1,0-0.3,0-0.3c-0.6-0.4-0.6-1.1-0.7-1.7C81.6,11,81,10,80.1,9.8c-0.5-0.1-1.1-0.1-1.6-0.1c-0.7,0-1.4,0-2,0c-0.8,0-1.5,0-2.3,0
      c-0.7,0-1.4-0.1-2.1-0.2c-1-0.2-1.4-0.9-1.6-1.8c-0.1-0.5,0-1,0.2-1.5c0.1-0.3,0-0.7,0-1.1c0-0.4,0-0.9,0-1.3c0.5-0.1,1-0.2,1.5-0.2
      c0.9-0.1,1.3-0.7,0.9-1.5c-0.4-0.8-0.9-1.3-1.7-1.6C70.2,0,69.1,0,68,0.4c-1,0.3-1.8,1-2,2.1c-0.1,0.3-0.1,0.6,0,0.9
      c0,0.1,0.3,0.3,0.5,0.3c0.7,0.1,1.4,0.1,2.2,0.2c0,0.5,0.1,1.1,0.1,1.6C68.9,6.3,69,7,69.1,7.8c0,0.3,0.1,0.7,0.2,1
      c0.2,1,0.9,1.5,1.8,1.8c1.8,0.5,3.7,0.7,5.6,0.7c1,0,2,0.2,3.1,0.4c0.2,0,0.5,0.4,0.6,0.7c0.2,0.6,0.2,1.2-0.2,1.8
      c-0.3,0.5-0.4,1.2-0.5,1.8c-0.1,1.1-0.1,2.2-0.2,3.3c0,0.3,0,0.6,0.1,0.8c0.1,0.4,0.3,0.9,0.5,1.3c0.5,0.8,0.5,1.6,0,2.3
      c-0.3,0.5-0.9,0.5-1.4,0.5c-1.1,0.1-2.1,0.2-3.2,0.2c-0.3,0-0.7-0.1-1-0.4c-0.1-0.1-0.2-0.2-0.2-0.2c-0.5,0-0.9,0-1.4,0
      c-0.2,0-0.3,0-0.5,0c-0.6-0.3-1.3-0.2-1.8,0c-0.5,0.2-1,0.1-1.5,0.2C69.1,24,69,24,69,24.3c0,0.4-0.1,0.8-0.1,1.3
      c0,0.3,0.1,0.6,0.1,0.9c0,0.9-0.1,1.8-0.1,2.7c0,0.5,0,1,0,1.4c0,0.5,0.1,0.9,0,1.4c0,0.1-0.3,0.3-0.4,0.4c-0.1,0.1-0.3,0.2-0.3,0.3
      c0,0.8,0.1,1.6,0.1,2.4c0,0.1,0.1,0.3,0.2,0.3c0.3,0.1,0.6,0.2,1,0.4c0,0.8,0.1,1.7,0.1,2.6c0,0.8,0.1,1.5,0.1,2.3
      c0,0.4-0.1,0.8-0.1,1.2c0,0.4-0.1,0.7,0.3,0.9c-0.6,0.6-0.6,1.3-0.1,1.9c0.1,0.2,0.2,0.4,0.3,0.6c-0.5,0.2-0.8,0.8-0.7,1.2
      c0.1,0.4,0.3,0.9,0.5,1.3c-0.6,0.6-0.7,1-0.4,1.9c0.1,0.2,0,0.4,0.1,0.6c0.1,0.7,0.1,1.3,0.2,2c-0.1,0.2-0.2,0.4-0.3,0.6
      c0,0.4,0,0.7,0,1.1c0,0.3,0.1,0.4,0.5,0.3c0.1,0.5,0.2,0.9,0.3,1.5c0.1-0.1,0.2-0.2,0.3-0.3c0.1-0.1,0.1-0.2,0.1-0.3
      c0-0.5,0.2-0.8,0.7-0.9c0.1,0,0.2-0.1,0.2-0.2c0.1-0.4,0.2-0.9,0.2-1.3c-0.2,0-0.3-0.1-0.3-0.1c-0.2,0.1-0.4,0.1-0.5-0.2
      c-0.1-0.3-0.1-0.5,0.1-0.7c0.4-0.4,0.5-0.8,0.3-1.3c-0.1-0.2-0.3-0.4-0.5-0.6c0.3-0.3,0.6-0.6,0.6-1.1c0-0.6-0.3-0.9-0.8-1.1
      c0.2-0.3,0.4-0.6,0.6-0.8c0.2-0.3,0.2-0.9-0.1-1.1c-0.2-0.1-0.3-0.3-0.5-0.4c0.3-0.5,0.9-0.7,0.9-1.3c0-0.6-0.4-1-1.1-1.2
      c0.6-0.1,0.7-0.5,0.6-0.9c-0.1-1.8-0.2-3.6-0.3-5.4c0-0.3,0-0.5,0-0.8c0.7,0,1.2-0.6,1.2-1.3c-0.1-0.7-0.2-1.3-0.5-1.9
      c-0.1-0.1,0-0.4,0-0.5c0-0.8,0-1.6,0-2.4c0-0.8,0-1.5-0.1-2.3c0-0.4-0.1-0.7,0.5-0.9c0.4-0.1,0.7-0.3,1.1,0.1c0.1,0.1,0.2,0,0.3,0
      c0.4,0,0.8,0,1.2,0c0-0.1,0.1-0.3,0.1-0.4c0-0.1,0.1-0.2,0.2-0.3c0.3,0,0.6,0,0.9,0c0.8-0.1,1.7-0.1,2.5-0.2c1.1-0.2,2.3-0.2,3-1.2
      l0,0c0,0,0,0,0,0c0-0.1,0.1-0.3,0.1-0.4c0.1-0.4,0.3-0.8,0.4-1.2c0.1-0.2,0-0.4,0.3-0.5c0.3-0.1,0.3-0.5,0.4-0.8
      c0.1-0.5,0.4-0.9,0.5-1.4C83,19.4,83.1,18.7,83,18z M80.9,22.4c0,0,0-0.1,0-0.1c0,0,0,0,0,0C80.9,22.3,80.9,22.4,80.9,22.4z
       M80.9,22.3L80.9,22.3C80.9,22.3,80.9,22.3,80.9,22.3C80.9,22.3,80.9,22.3,80.9,22.3z M81.1,24.3L81.1,24.3c0-0.1,0.1-0.3,0.1-0.4
      C81.1,24.1,81.1,24.2,81.1,24.3C81.1,24.3,81.1,24.3,81.1,24.3z"/>
    <path style="fill:#FFF;" d="M18.6,17.7c0,0.2,0,0.3-0.1,0.5c-0.1,0.2-0.1,0.3-0.2,0.4c-0.1,0.1-0.1,0.2-0.2,0.3
      c-0.1,0.1-0.1,0.1-0.1,0.1c0,0.1,0,0.2,0.1,0.4c0.1,0.1,0.1,0.3,0.1,0.4c0,0.1,0,0.1-0.1,0.1c-0.1,0-0.1,0-0.2,0
      c-0.1,0-0.2,0-0.3,0c0,0.2,0,0.5,0.1,0.7c0,0.2,0,0.4,0,0.7c0,0.3,0,0.6-0.1,0.7c-0.1,0.1-0.1,0.2-0.2,0.2c-0.1,0-0.1,0.1-0.2,0.1
      c-0.1,0-0.1,0.1-0.1,0.3c0,0.1-0.1,0.2-0.2,0.4c-0.2,0.2-0.3,0.3-0.5,0.5c-0.2,0.2-0.4,0.3-0.7,0.4c-0.2,0.1-0.4,0.2-0.5,0.2
      c0,0-0.1,0-0.1,0c0,0.1,0,0.2,0,0.3c0,0.1,0,0.2,0,0.3c0,0.2,0,0.3-0.1,0.3c-0.1,0.1-0.2,0.1-0.3,0.2c-0.2,0.1-0.4,0.2-0.6,0.4
      c-0.2,0.2-0.4,0.3-0.6,0.5c-0.2,0.2-0.4,0.3-0.6,0.4c-0.2,0.1-0.4,0.2-0.7,0.2c-0.2,0-0.4,0-0.5-0.1c-0.2-0.1-0.4-0.1-0.6-0.1
      c-0.2,0-0.4,0-0.5,0.1c-0.1,0.1-0.3,0.1-0.4,0.2c-0.1,0.1-0.2,0.1-0.4,0.2c-0.1,0.1-0.3,0.1-0.4,0.1c-0.3,0-0.6-0.1-0.9-0.2
      c-0.3-0.2-0.6-0.3-0.9-0.4c-0.2-0.1-0.3-0.1-0.5-0.1C7,26.1,6.9,26,6.7,26c-0.2,0-0.4-0.1-0.5-0.2c-0.2-0.1-0.3-0.2-0.4-0.3
      c-0.3-0.3-0.5-0.6-0.9-0.8c-0.3-0.2-0.7-0.4-1-0.6c-0.3-0.2-0.7-0.4-1-0.6c-0.3-0.2-0.6-0.5-0.9-0.8c-0.2-0.3-0.4-0.5-0.6-0.8
      c-0.2-0.3-0.4-0.6-0.6-0.9c-0.2-0.3-0.4-0.7-0.5-1C0.1,19.7,0,19.3,0,19c0-0.2,0-0.5,0.1-0.7c0-0.2,0.1-0.5,0.2-0.7
      c0.1-0.2,0.1-0.5,0.2-0.7c0-0.2,0.1-0.5,0.1-0.7V16c0,0,0-0.1-0.1-0.2s-0.1-0.1-0.1-0.2c0-0.1-0.1-0.1-0.1-0.1c0,0-0.1-0.1-0.1-0.1
      c0,0,0,0,0,0c0-0.1,0-0.3,0.1-0.5c0.1-0.2,0.1-0.5,0.2-0.7c0.1-0.2,0.1-0.5,0.2-0.7c0.1-0.2,0.1-0.3,0.2-0.4
      c0.1-0.1,0.1-0.1,0.2-0.2C1,13,1,12.9,1,12.8s0-0.2,0-0.3c0-0.1,0-0.2,0-0.3C1,12,1,12,1.1,11.9c0,0,0.1,0,0.1,0c0.1,0,0.1,0,0.2,0
      c0.1,0,0.1-0.1,0.2-0.2c0.1-0.2,0.2-0.4,0.3-0.6c0.1-0.2,0.2-0.4,0.3-0.5c0.1-0.2,0.3-0.3,0.4-0.4C2.8,10,3,9.8,3.2,9.7
      c0.2-0.1,0.4-0.2,0.6-0.4C4,9.2,4.2,9,4.4,8.9c0.2-0.2,0.4-0.3,0.6-0.4c0.2-0.1,0.4-0.2,0.6-0.2c0.3,0,0.6-0.1,0.9-0.2
      C6.8,8,7.2,7.9,7.5,7.9c0.5-0.1,1-0.1,1.5-0.2c0.5-0.1,1-0.1,1.5-0.1c0.3,0,0.6,0,1,0.1c0.4,0.1,0.8,0.2,1.2,0.4
      c0.4,0.1,0.8,0.3,1.2,0.5c0.4,0.2,0.7,0.4,0.9,0.5v0.1c0,0.2,0,0.3-0.1,0.5c-0.1,0.2-0.1,0.3-0.1,0.5c0,0,0,0,0,0.1c0,0,0,0,0,0
      c0.2,0,0.4,0,0.6-0.1c0.2-0.1,0.4-0.1,0.6-0.1c0,0.2,0.1,0.3,0.3,0.4c0.2,0.1,0.3,0.1,0.5,0.2c0.1,0.1,0.3,0.2,0.4,0.4
      c0.1,0.2,0.2,0.4,0.4,0.6c0.1,0.2,0.2,0.5,0.3,0.7c0.1,0.2,0.2,0.4,0.3,0.6c0.1,0.1,0.2,0.3,0.3,0.5c0.1,0.2,0.1,0.4,0.2,0.6
      c0.1,0.2,0.1,0.4,0.1,0.6c0,0.2,0,0.4,0,0.6c0,0.2,0,0.4-0.1,0.6c-0.1,0.2-0.2,0.3-0.3,0.4c-0.1,0.1-0.2,0.2-0.3,0.4
      c-0.1,0.1-0.1,0.2-0.1,0.4c0,0.1,0,0.2,0.1,0.2c0,0.1,0.1,0.1,0.1,0.2c0,0,0.1,0,0.2,0c0.1,0,0.1,0,0.1-0.1v0c0-0.1,0-0.2-0.1-0.3
      c-0.1-0.1-0.1-0.2-0.1-0.3c0,0,0-0.1,0-0.1c0-0.1,0.1-0.1,0.1-0.1c0.1,0,0.1,0,0.2,0.1s0.1,0.2,0.2,0.3c0.1,0.1,0.1,0.2,0.2,0.3
      c0,0.1,0.1,0.1,0.1,0.1l0,0c0,0.1,0,0.1,0,0.2C18.6,17.6,18.6,17.6,18.6,17.7z M16.8,17.8c0-0.2-0.1-0.3-0.2-0.4
      c-0.1,0-0.3-0.1-0.5-0.1c-0.2,0-0.4,0-0.5-0.1c-0.2,0-0.3-0.1-0.4-0.3v-0.2c0-0.3,0-0.6-0.1-0.9c-0.1-0.4-0.1-0.7-0.2-1.1
      c-0.1-0.4-0.2-0.7-0.3-1.1c-0.1-0.4-0.2-0.7-0.3-1c-0.1-0.3-0.2-0.6-0.3-0.9c-0.1,0-0.2,0-0.2,0c-0.2,0-0.4,0-0.5-0.1
      c-0.2-0.1-0.3-0.2-0.5-0.3c-0.2-0.1-0.4-0.2-0.7-0.3c-0.3-0.1-0.6-0.1-1.1-0.1c-0.5,0-1,0-1.5-0.1C9,11,8.5,11,8,11
      c-0.7,0-1.3,0.2-1.9,0.5c-0.6,0.3-1.1,0.7-1.6,1.2c-0.4,0.5-0.8,1.1-1,1.7c-0.3,0.6-0.4,1.3-0.4,1.9c0,0.3,0,0.6,0,0.9
      c0,0.4,0,0.7,0.1,1.1c0,0.4,0.1,0.7,0.2,1c0.1,0.3,0.3,0.5,0.5,0.7v0.5c0,0,0.1,0.1,0.2,0.1c0.1,0,0.2,0,0.2,0c0.1,0,0.1,0,0.2,0
      c0.1,0,0.1,0.1,0.1,0.2c0.2,0.4,0.4,0.8,0.6,1c0.3,0.2,0.5,0.4,0.8,0.6c0.3,0.2,0.6,0.3,0.9,0.5c0.3,0.2,0.6,0.4,0.8,0.7
      c0.1,0,0.2,0,0.3,0c0.1,0,0.2,0,0.3,0c0.4,0,0.8,0,1.1,0.1c0.4,0.1,0.7,0.1,1.1,0.1c0.4,0,0.8-0.1,1.1-0.3c0.3-0.2,0.6-0.5,0.8-0.8
      c0.1-0.2,0.3-0.4,0.4-0.5c0.1-0.1,0.2-0.3,0.4-0.4c0.1-0.1,0.3-0.2,0.4-0.4c0.2-0.1,0.3-0.2,0.5-0.4c0.1,0,0.2-0.1,0.3-0.2
      c0.1-0.1,0.2-0.2,0.3-0.2c0.1-0.1,0.2-0.2,0.3-0.3c0.1-0.1,0.1-0.2,0.1-0.3c0-0.1,0-0.2,0-0.3c0-0.1,0-0.2,0-0.3
      c0-0.1,0-0.3,0.1-0.4s0.1-0.3,0.2-0.5c0.1-0.2,0.2-0.3,0.3-0.4c0.1-0.1,0.3-0.2,0.4-0.2c0.1,0,0.3,0,0.4,0.1
      c0.1,0.1,0.3,0.1,0.4,0.2C16.8,18,16.8,17.9,16.8,17.8z"/>
    <path style="fill:#FFF;" d="M42.2,24.8c0,0.2,0,0.3-0.1,0.5c-0.1,0.2-0.2,0.2-0.4,0.2c-0.1,0-0.3,0-0.4,0c-0.1,0-0.2,0-0.4,0
      c-0.2,0-0.3,0-0.3,0.1c0,0.1,0,0.2,0,0.2c0,0.1-0.1,0.2-0.3,0.2c-0.2,0.1-0.5,0.1-0.9,0.1c-0.3,0-0.6,0-0.8-0.1
      c-0.3,0-0.5-0.1-0.8-0.1c-0.2,0-0.4,0-0.7,0.1c-0.1-0.1-0.2-0.2-0.3-0.3c-0.1-0.1-0.2-0.1-0.3-0.2c-0.1-0.1-0.2-0.1-0.3-0.2
      c-0.1-0.1-0.1-0.2-0.1-0.4c0-0.1-0.1-0.2-0.3-0.2c-0.1,0-0.1,0-0.2,0c-0.1,0-0.1,0-0.2,0c-0.1,0-0.1,0-0.2,0c0,0-0.1-0.1-0.1-0.1
      c0,0,0,0,0-0.1c-0.3,0-0.4,0.1-0.6,0.3c-0.1,0.2-0.3,0.3-0.4,0.5c-0.1,0.1-0.2,0.2-0.3,0.2c-0.1,0.1-0.2,0.1-0.4,0.1
      c-0.1,0-0.3,0.1-0.4,0.2c-0.1,0.1-0.3,0.2-0.4,0.3c-0.1,0.1-0.3,0.2-0.5,0.2c-0.3,0.1-0.5,0.1-0.8,0.1c-0.3,0-0.6,0-0.8,0.1
      c-0.3,0-0.5,0-0.6,0c-0.4,0-0.7,0-0.9-0.1c-0.2-0.1-0.4-0.1-0.6-0.2c-0.2-0.1-0.4-0.2-0.6-0.3c-0.2-0.1-0.4-0.2-0.7-0.3
      c-0.3-0.1-0.7-0.3-1.2-0.5c-0.5-0.3-0.9-0.6-1.3-0.9c-0.4-0.3-0.8-0.7-1.1-1.1c-0.3-0.4-0.4-0.8-0.4-1.2c0-0.2,0-0.3-0.1-0.5
      c-0.1-0.2-0.2-0.3-0.3-0.5c-0.1-0.2-0.2-0.3-0.4-0.5c-0.1-0.2-0.2-0.3-0.3-0.5c-0.2-0.5-0.4-0.9-0.4-1.4c-0.1-0.5-0.1-1-0.1-1.5
      c0-0.5,0-0.9,0.1-1.3c0.1-0.4,0.2-0.9,0.3-1.3c0.1-0.4,0.2-0.8,0.3-1.2c0.1-0.4,0.2-0.8,0.3-1.3c0.1-0.3,0.1-0.6,0.3-0.7
      c0.1-0.2,0.2-0.3,0.4-0.4c0.1-0.1,0.3-0.2,0.5-0.3c0.2-0.1,0.3-0.3,0.5-0.5c0.1-0.1,0.1-0.2,0.1-0.2c0-0.1,0-0.1,0.1-0.2
      c0,0,0.1-0.1,0.1-0.1c0.1,0,0.2,0,0.3,0c0.1,0,0.2,0,0.2-0.1c0.1-0.1,0.1-0.1,0.2-0.2c0-0.1,0.1-0.2,0.1-0.3c0-0.1,0.1-0.2,0.2-0.2
      c0.1,0,0.2-0.1,0.3-0.1c0.1,0,0.2,0,0.3-0.1c0.1,0,0.2,0,0.4,0c0.1,0,0.2,0,0.3-0.1c0.3-0.1,0.5-0.2,0.6-0.3
      c0.2-0.1,0.3-0.2,0.5-0.2c0.2-0.1,0.3-0.1,0.5-0.2c0.2,0,0.4-0.1,0.8-0.1c0.4,0,0.8,0.1,1.2,0.2c0.4,0.1,0.8,0.2,1.2,0.3
      c0.4,0.1,0.8,0.2,1.2,0.3c0.4,0.1,0.8,0.2,1.2,0.2c0.3,0,0.6-0.1,0.8-0.2c0.2-0.1,0.3-0.3,0.5-0.6c0.1-0.2,0.2-0.5,0.2-0.8
      c0-0.3,0-0.5,0-0.8c0-0.5,0-0.9-0.1-1.4c-0.1-0.5-0.1-0.9-0.1-1.4l-0.2,0.1c-0.1,0-0.2,0-0.3-0.1c-0.1-0.1-0.2-0.1-0.3-0.2
      c-0.1-0.1-0.2-0.2-0.3-0.2c-0.1-0.1-0.2-0.1-0.3-0.1c-0.1,0-0.2,0-0.3,0.1c0,0.1-0.1,0.1-0.2,0.2c-0.1,0-0.3,0-0.4,0
      c-0.1,0-0.3,0-0.4,0h-0.8c-0.2,0-0.4-0.1-0.6-0.2c-0.2-0.1-0.4-0.2-0.6-0.4c-0.2-0.2-0.4-0.3-0.5-0.5c-0.1-0.2-0.2-0.4-0.2-0.6
      c0-0.2,0.1-0.3,0.2-0.5c0.1-0.2,0.2-0.3,0.4-0.5c0.2-0.1,0.3-0.3,0.5-0.4c0.2-0.1,0.4-0.1,0.5-0.1c0.2,0,0.3,0,0.4,0.1
      c0.1,0.1,0.3,0.1,0.4,0.1c0.3,0,0.5,0,0.8-0.1c0.2-0.1,0.5-0.1,0.8-0.1c0.3,0,0.5,0,0.8,0.1c0.2,0.1,0.5,0.1,0.8,0.1
      c0.2,0,0.4,0,0.6,0c0.2,0,0.4,0,0.6,0c0.2,0,0.4,0,0.7,0.1c0.2,0,0.4,0.1,0.6,0.2v0.1c0,0.2,0,0.3,0.1,0.5c0,0.2,0.1,0.3,0.1,0.5
      c0.1,0.2,0.1,0.3,0.1,0.5c0,0.2,0.1,0.3,0.1,0.5c0,0.2-0.1,0.4-0.2,0.6c-0.1,0.2-0.2,0.4-0.2,0.6c0,0.4,0,0.8,0.1,1.3
      c0.1,0.4,0.1,0.8,0.1,1.3c0,1.1,0,2.1,0,3.2c0,1.1,0,2.1,0,3.2c0,1.1,0,2.2-0.1,3.2c-0.1,1.1-0.1,2.1-0.1,3.2c0,0.4,0,0.8,0.1,1.3
      c0,0.5,0.1,1,0.3,1.4c0.2,0.4,0.4,0.8,0.7,1.1s0.7,0.5,1.3,0.5c0.1,0,0.2,0,0.3,0c0.1,0,0.2,0,0.3,0c0.2,0,0.3,0,0.4,0.1
      c0.1,0.1,0.2,0.2,0.3,0.3c0.1,0.1,0.1,0.3,0.2,0.4C42.2,24.6,42.2,24.7,42.2,24.8z M35.7,15.9c0-0.4,0-0.9-0.1-1.4
      c-0.1-0.5-0.2-1-0.4-1.4c-0.2-0.4-0.5-0.8-0.8-1.1c-0.3-0.3-0.8-0.5-1.3-0.5c-0.1,0-0.2-0.1-0.4-0.1c-0.2-0.1-0.3-0.2-0.5-0.3
      c-0.2-0.1-0.3-0.2-0.5-0.3c-0.2-0.1-0.3-0.1-0.4-0.1c-0.1,0-0.2,0-0.3,0.1c-0.1,0-0.2,0.1-0.3,0.1c-0.1,0.1-0.2,0.1-0.3,0.1
      c-0.1,0-0.2,0.1-0.3,0.1c-0.2,0-0.4,0-0.6,0c-0.2,0-0.4,0-0.6,0c-0.6,0-1.1,0.2-1.6,0.5c-0.5,0.4-0.9,0.8-1.3,1.3
      c-0.3,0.5-0.6,1.1-0.8,1.7c-0.2,0.6-0.3,1.2-0.3,1.7c0,0.2,0,0.4,0,0.7c0,0.2,0,0.4,0,0.7c0,0.1,0,0.3-0.1,0.4
      c-0.1,0.1-0.2,0.2-0.3,0.3c-0.1,0.1-0.2,0.2-0.3,0.3c-0.1,0.1-0.1,0.2-0.1,0.4h0.1c0.3,0,0.6,0.1,0.7,0.2c0.2,0.1,0.3,0.3,0.4,0.5
      c0.1,0.2,0.2,0.4,0.2,0.6c0.1,0.2,0.1,0.5,0.2,0.7c0.1,0.2,0.2,0.5,0.3,0.7c0.1,0.2,0.3,0.4,0.6,0.6c0.2,0.1,0.4,0.3,0.6,0.4
      c0.2,0.2,0.5,0.3,0.7,0.4c0.3,0.1,0.5,0.2,0.8,0.3c0.3,0.1,0.5,0.1,0.8,0.1c0.4,0,0.8-0.1,1.1-0.2c0.4-0.1,0.8-0.2,1.1-0.2
      c0.1,0,0.3,0,0.5,0.1c0.3-0.4,0.6-0.8,1-1.2c0.4-0.4,0.8-0.7,1.3-0.8l0-0.4c0-0.4,0-0.8,0.1-1.2c0.1-0.4,0.2-0.8,0.3-1.2
      c0.1-0.4,0.2-0.8,0.3-1.2C35.6,16.8,35.7,16.4,35.7,15.9z"/>
    <path style="fill:#FFF;" d="M64.6,24.8c0,0.2,0,0.3-0.1,0.5c-0.1,0.2-0.2,0.2-0.4,0.2c-0.1,0-0.3,0-0.4,0c-0.1,0-0.2,0-0.4,0
      c-0.2,0-0.3,0-0.3,0.1c0,0.1,0,0.2,0,0.2c0,0.1-0.1,0.2-0.3,0.2c-0.2,0.1-0.5,0.1-0.9,0.1c-0.3,0-0.6,0-0.8-0.1
      c-0.3,0-0.5-0.1-0.8-0.1c-0.2,0-0.4,0-0.7,0.1c-0.1-0.1-0.2-0.2-0.3-0.3c-0.1-0.1-0.2-0.1-0.3-0.2c-0.1-0.1-0.2-0.1-0.3-0.2
      c-0.1-0.1-0.1-0.2-0.1-0.4c0-0.1-0.1-0.2-0.3-0.2c-0.1,0-0.1,0-0.2,0c-0.1,0-0.1,0-0.2,0c-0.1,0-0.1,0-0.2,0c0,0-0.1-0.1-0.1-0.1
      c0,0,0,0,0-0.1c-0.3,0-0.4,0.1-0.6,0.3c-0.1,0.2-0.3,0.3-0.4,0.5c-0.1,0.1-0.2,0.2-0.3,0.2c-0.1,0.1-0.2,0.1-0.4,0.1
      c-0.1,0-0.3,0.1-0.4,0.2c-0.1,0.1-0.3,0.2-0.4,0.3c-0.1,0.1-0.3,0.2-0.5,0.2c-0.3,0.1-0.5,0.1-0.8,0.1c-0.3,0-0.6,0-0.8,0.1
      c-0.3,0-0.5,0-0.6,0c-0.4,0-0.7,0-0.9-0.1c-0.2-0.1-0.4-0.1-0.6-0.2c-0.2-0.1-0.4-0.2-0.6-0.3c-0.2-0.1-0.4-0.2-0.7-0.3
      c-0.3-0.1-0.7-0.3-1.2-0.5c-0.5-0.3-0.9-0.6-1.3-0.9c-0.4-0.3-0.8-0.7-1.1-1.1c-0.3-0.4-0.4-0.8-0.4-1.2c0-0.2,0-0.3-0.1-0.5
      c-0.1-0.2-0.2-0.3-0.3-0.5c-0.1-0.2-0.2-0.3-0.4-0.5c-0.1-0.2-0.2-0.3-0.3-0.5c-0.2-0.5-0.4-0.9-0.4-1.4C44,18,44,17.5,44,16.9
      c0-0.5,0-0.9,0.1-1.3c0.1-0.4,0.2-0.9,0.3-1.3c0.1-0.4,0.2-0.8,0.3-1.2c0.1-0.4,0.2-0.8,0.3-1.3c0.1-0.3,0.1-0.6,0.3-0.7
      c0.1-0.2,0.2-0.3,0.4-0.4c0.1-0.1,0.3-0.2,0.5-0.3c0.2-0.1,0.3-0.3,0.5-0.5c0.1-0.1,0.1-0.2,0.1-0.2c0-0.1,0-0.1,0.1-0.2
      c0,0,0.1-0.1,0.1-0.1c0.1,0,0.2,0,0.3,0c0.1,0,0.2,0,0.2-0.1c0.1-0.1,0.1-0.1,0.2-0.2c0-0.1,0.1-0.2,0.1-0.3c0-0.1,0.1-0.2,0.2-0.2
      c0.1,0,0.2-0.1,0.3-0.1c0.1,0,0.2,0,0.3-0.1c0.1,0,0.2,0,0.4,0c0.1,0,0.2,0,0.3-0.1c0.3-0.1,0.5-0.2,0.6-0.3
      c0.2-0.1,0.3-0.2,0.5-0.2c0.2-0.1,0.3-0.1,0.5-0.2c0.2,0,0.4-0.1,0.8-0.1c0.4,0,0.8,0.1,1.2,0.2c0.4,0.1,0.8,0.2,1.2,0.3
      c0.4,0.1,0.8,0.2,1.2,0.3c0.4,0.1,0.8,0.2,1.2,0.2c0.3,0,0.6-0.1,0.8-0.2c0.2-0.1,0.3-0.3,0.5-0.6c0.1-0.2,0.2-0.5,0.2-0.8
      c0-0.3,0-0.5,0-0.8c0-0.5,0-0.9-0.1-1.4c-0.1-0.5-0.1-0.9-0.1-1.4l-0.2,0.1c-0.1,0-0.2,0-0.3-0.1c-0.1-0.1-0.2-0.1-0.3-0.2
      c-0.1-0.1-0.2-0.2-0.3-0.2c-0.1-0.1-0.2-0.1-0.3-0.1c-0.1,0-0.2,0-0.3,0.1C56,3,56,3.1,55.9,3.1c-0.1,0-0.3,0-0.4,0
      c-0.1,0-0.3,0-0.4,0h-0.8c-0.2,0-0.4-0.1-0.6-0.2c-0.2-0.1-0.4-0.2-0.6-0.4c-0.2-0.2-0.4-0.3-0.5-0.5c-0.1-0.2-0.2-0.4-0.2-0.6
      c0-0.2,0.1-0.3,0.2-0.5c0.1-0.2,0.2-0.3,0.4-0.5c0.2-0.1,0.3-0.3,0.5-0.4c0.2-0.1,0.4-0.1,0.5-0.1c0.2,0,0.3,0,0.4,0.1
      c0.1,0.1,0.3,0.1,0.4,0.1c0.3,0,0.5,0,0.8-0.1c0.2-0.1,0.5-0.1,0.8-0.1c0.3,0,0.5,0,0.8,0.1c0.2,0.1,0.5,0.1,0.8,0.1
      c0.2,0,0.4,0,0.6,0c0.2,0,0.4,0,0.6,0c0.2,0,0.4,0,0.7,0.1c0.2,0,0.4,0.1,0.6,0.2v0.1c0,0.2,0,0.3,0.1,0.5c0,0.2,0.1,0.3,0.1,0.5
      c0.1,0.2,0.1,0.3,0.1,0.5c0,0.2,0.1,0.3,0.1,0.5c0,0.2-0.1,0.4-0.2,0.6c-0.1,0.2-0.2,0.4-0.2,0.6c0,0.4,0,0.8,0.1,1.3
      c0.1,0.4,0.1,0.8,0.1,1.3c0,1.1,0,2.1,0,3.2c0,1.1,0,2.1,0,3.2c0,1.1,0,2.2-0.1,3.2c-0.1,1.1-0.1,2.1-0.1,3.2c0,0.4,0,0.8,0.1,1.3
      c0,0.5,0.1,1,0.3,1.4c0.2,0.4,0.4,0.8,0.7,1.1s0.7,0.5,1.3,0.5c0.1,0,0.2,0,0.3,0c0.1,0,0.2,0,0.3,0c0.2,0,0.3,0,0.4,0.1
      c0.1,0.1,0.2,0.2,0.3,0.3c0.1,0.1,0.1,0.3,0.2,0.4C64.6,24.6,64.6,24.7,64.6,24.8z M58,15.9c0-0.4,0-0.9-0.1-1.4
      c-0.1-0.5-0.2-1-0.4-1.4c-0.2-0.4-0.5-0.8-0.8-1.1c-0.3-0.3-0.8-0.5-1.3-0.5c-0.1,0-0.2-0.1-0.4-0.1c-0.2-0.1-0.3-0.2-0.5-0.3
      c-0.2-0.1-0.3-0.2-0.5-0.3c-0.2-0.1-0.3-0.1-0.4-0.1c-0.1,0-0.2,0-0.3,0.1c-0.1,0-0.2,0.1-0.3,0.1c-0.1,0.1-0.2,0.1-0.3,0.1
      c-0.1,0-0.2,0.1-0.3,0.1c-0.2,0-0.4,0-0.6,0c-0.2,0-0.4,0-0.6,0c-0.6,0-1.1,0.2-1.6,0.5c-0.5,0.4-0.9,0.8-1.3,1.3
      c-0.3,0.5-0.6,1.1-0.8,1.7c-0.2,0.6-0.3,1.2-0.3,1.7c0,0.2,0,0.4,0,0.7c0,0.2,0,0.4,0,0.7c0,0.1,0,0.3-0.1,0.4
      c-0.1,0.1-0.2,0.2-0.3,0.3c-0.1,0.1-0.2,0.2-0.3,0.3c-0.1,0.1-0.1,0.2-0.1,0.4h0.1c0.3,0,0.6,0.1,0.7,0.2c0.2,0.1,0.3,0.3,0.4,0.5
      c0.1,0.2,0.2,0.4,0.2,0.6c0.1,0.2,0.1,0.5,0.2,0.7c0.1,0.2,0.2,0.5,0.3,0.7c0.1,0.2,0.3,0.4,0.6,0.6c0.2,0.1,0.4,0.3,0.6,0.4
      c0.2,0.2,0.5,0.3,0.7,0.4c0.3,0.1,0.5,0.2,0.8,0.3c0.3,0.1,0.5,0.1,0.8,0.1c0.4,0,0.8-0.1,1.1-0.2c0.4-0.1,0.8-0.2,1.1-0.2
      c0.1,0,0.3,0,0.5,0.1c0.3-0.4,0.6-0.8,1-1.2c0.4-0.4,0.8-0.7,1.3-0.8l0-0.4c0-0.4,0-0.8,0.1-1.2c0.1-0.4,0.2-0.8,0.3-1.2
      c0.1-0.4,0.2-0.8,0.3-1.2C58,16.8,58,16.4,58,15.9z"/>
    <path style="fill:#FFF;" d="M104.5,17.5c0,0.2,0,0.3-0.1,0.5c-0.1,0.2-0.1,0.3-0.2,0.4c-0.1,0.1-0.1,0.2-0.2,0.3
      c-0.1,0.1-0.1,0.1-0.1,0.1c0,0.1,0,0.2,0.1,0.4c0.1,0.1,0.1,0.3,0.1,0.4c0,0.1,0,0.1-0.1,0.1c-0.1,0-0.1,0-0.2,0
      c-0.1,0-0.2,0-0.3,0c0,0.2,0,0.5,0.1,0.7c0,0.2,0,0.4,0,0.7c0,0.3,0,0.6-0.1,0.7c-0.1,0.1-0.1,0.2-0.2,0.2c-0.1,0-0.1,0.1-0.2,0.1
      c-0.1,0-0.1,0.1-0.1,0.3c0,0.1-0.1,0.2-0.2,0.4c-0.2,0.2-0.3,0.3-0.5,0.5c-0.2,0.2-0.4,0.3-0.7,0.4c-0.2,0.1-0.4,0.2-0.5,0.2
      c0,0-0.1,0-0.1,0c0,0.1,0,0.2,0,0.3c0,0.1,0,0.2,0,0.3c0,0.2,0,0.3-0.1,0.3c-0.1,0.1-0.2,0.1-0.3,0.2c-0.2,0.1-0.4,0.2-0.6,0.4
      c-0.2,0.2-0.4,0.3-0.6,0.5c-0.2,0.2-0.4,0.3-0.6,0.4c-0.2,0.1-0.4,0.2-0.7,0.2c-0.2,0-0.4,0-0.5-0.1c-0.2-0.1-0.4-0.1-0.6-0.1
      c-0.2,0-0.4,0-0.5,0.1c-0.1,0.1-0.3,0.1-0.4,0.2c-0.1,0.1-0.2,0.1-0.4,0.2c-0.1,0.1-0.3,0.1-0.4,0.1c-0.3,0-0.6-0.1-0.9-0.2
      c-0.3-0.2-0.6-0.3-0.9-0.4c-0.2-0.1-0.4-0.1-0.5-0.1c-0.2,0-0.4-0.1-0.6-0.1c-0.2,0-0.4-0.1-0.5-0.2c-0.2-0.1-0.3-0.2-0.4-0.3
      c-0.3-0.3-0.5-0.6-0.9-0.8s-0.7-0.4-1-0.6c-0.4-0.2-0.7-0.4-1-0.6c-0.3-0.2-0.6-0.5-0.9-0.8c-0.2-0.3-0.4-0.5-0.6-0.8
      c-0.2-0.3-0.4-0.6-0.6-0.9c-0.2-0.3-0.4-0.7-0.5-1c-0.1-0.3-0.2-0.7-0.2-1c0-0.2,0-0.5,0.1-0.7c0-0.2,0.1-0.5,0.2-0.7
      c0.1-0.2,0.1-0.5,0.2-0.7c0-0.2,0.1-0.5,0.1-0.7v-0.2c0,0,0-0.1-0.1-0.2c0-0.1-0.1-0.1-0.1-0.2c0-0.1-0.1-0.1-0.1-0.1
      c0,0-0.1-0.1-0.1-0.1c0,0,0,0,0,0c0-0.1,0-0.3,0.1-0.5c0.1-0.2,0.1-0.5,0.2-0.7c0.1-0.2,0.1-0.5,0.2-0.7c0.1-0.2,0.1-0.3,0.2-0.4
      c0.1-0.1,0.1-0.1,0.2-0.2c0.1-0.1,0.1-0.2,0.1-0.3s0-0.2,0-0.3c0-0.1,0-0.2,0-0.3c0-0.1,0-0.2,0.1-0.3c0,0,0.1,0,0.1,0
      c0.1,0,0.1,0,0.2,0c0.1,0,0.1-0.1,0.2-0.2c0.1-0.2,0.2-0.4,0.3-0.6c0.1-0.2,0.2-0.4,0.3-0.5c0.1-0.2,0.3-0.3,0.4-0.4
      c0.2-0.1,0.3-0.3,0.6-0.4c0.2-0.1,0.4-0.2,0.6-0.4C89.8,9,90,8.8,90.2,8.6c0.2-0.2,0.4-0.3,0.6-0.4c0.2-0.1,0.4-0.2,0.6-0.2
      c0.3,0,0.6-0.1,1-0.2c0.3-0.1,0.6-0.2,0.9-0.3c0.5-0.1,1-0.1,1.5-0.2c0.5-0.1,1-0.1,1.5-0.1c0.3,0,0.6,0,1,0.1
      c0.4,0.1,0.8,0.2,1.2,0.4c0.4,0.1,0.8,0.3,1.2,0.5c0.4,0.2,0.7,0.4,0.9,0.5v0.1c0,0.2,0,0.3-0.1,0.5c-0.1,0.2-0.1,0.3-0.1,0.5
      c0,0,0,0,0,0.1c0,0,0,0,0,0c0.2,0,0.4,0,0.6-0.1c0.2-0.1,0.4-0.1,0.6-0.1c0,0.2,0.1,0.3,0.3,0.4c0.2,0.1,0.3,0.1,0.5,0.2
      c0.1,0.1,0.3,0.2,0.4,0.4c0.1,0.2,0.2,0.4,0.4,0.6c0.1,0.2,0.2,0.5,0.3,0.7c0.1,0.2,0.2,0.4,0.3,0.6c0.1,0.1,0.2,0.3,0.3,0.5
      c0.1,0.2,0.1,0.4,0.2,0.6s0.1,0.4,0.1,0.6c0,0.2,0,0.4,0,0.6c0,0.2,0,0.4-0.1,0.6c-0.1,0.2-0.2,0.3-0.3,0.4
      c-0.1,0.1-0.2,0.2-0.3,0.4c-0.1,0.1-0.1,0.2-0.1,0.4c0,0.1,0,0.2,0.1,0.2c0,0.1,0.1,0.1,0.1,0.2c0,0,0.1,0,0.2,0
      c0.1,0,0.1,0,0.1-0.1v0c0-0.1,0-0.2-0.1-0.3c-0.1-0.1-0.1-0.2-0.1-0.3c0,0,0-0.1,0-0.1c0-0.1,0.1-0.1,0.1-0.1c0.1,0,0.1,0,0.2,0.1
      c0.1,0.1,0.1,0.2,0.2,0.3c0.1,0.1,0.1,0.2,0.2,0.3c0,0.1,0.1,0.1,0.1,0.1l0,0c0,0.1,0,0.1,0,0.2C104.5,17.4,104.5,17.4,104.5,17.5z
       M102.6,17.6c0-0.2-0.1-0.3-0.2-0.4c-0.1,0-0.3-0.1-0.5-0.1c-0.2,0-0.4,0-0.5-0.1c-0.2,0-0.3-0.1-0.4-0.3v-0.2c0-0.3,0-0.6-0.1-0.9
      c-0.1-0.4-0.1-0.7-0.2-1.1c-0.1-0.4-0.2-0.7-0.3-1.1c-0.1-0.4-0.2-0.7-0.3-1c-0.1-0.3-0.2-0.6-0.3-0.9c-0.1,0-0.2,0-0.2,0
      c-0.2,0-0.4,0-0.5-0.1c-0.2-0.1-0.3-0.2-0.5-0.3c-0.2-0.1-0.4-0.2-0.7-0.3c-0.3-0.1-0.6-0.1-1.1-0.1c-0.5,0-1,0-1.5-0.1
      c-0.5-0.1-1-0.1-1.5-0.1c-0.7,0-1.3,0.2-1.9,0.5c-0.6,0.3-1.1,0.7-1.6,1.2c-0.4,0.5-0.8,1.1-1,1.7c-0.3,0.6-0.4,1.3-0.4,1.9
      c0,0.3,0,0.6,0,0.9c0,0.4,0,0.7,0.1,1.1c0,0.4,0.1,0.7,0.2,1c0.1,0.3,0.3,0.5,0.5,0.7v0.5c0,0,0.1,0.1,0.2,0.1c0.1,0,0.2,0,0.2,0
      c0.1,0,0.1,0,0.2,0c0.1,0,0.1,0.1,0.1,0.2c0.2,0.4,0.4,0.8,0.6,1c0.3,0.2,0.5,0.4,0.8,0.6c0.3,0.2,0.6,0.3,0.9,0.5
      c0.3,0.2,0.6,0.4,0.8,0.7c0.1,0,0.2,0,0.3,0c0.1,0,0.2,0,0.3,0c0.4,0,0.8,0,1.1,0.1c0.4,0.1,0.7,0.1,1.1,0.1c0.4,0,0.8-0.1,1.1-0.3
      c0.3-0.2,0.6-0.5,0.8-0.8c0.1-0.2,0.3-0.4,0.4-0.5c0.1-0.1,0.2-0.3,0.4-0.4c0.1-0.1,0.3-0.2,0.4-0.4c0.2-0.1,0.3-0.2,0.5-0.4
      c0.1,0,0.2-0.1,0.3-0.2c0.1-0.1,0.2-0.2,0.3-0.2c0.1-0.1,0.2-0.2,0.3-0.3c0.1-0.1,0.1-0.2,0.1-0.3c0-0.1,0-0.2,0-0.3
      c0-0.1,0-0.2,0-0.3c0-0.1,0-0.3,0.1-0.4c0-0.2,0.1-0.3,0.2-0.5c0.1-0.2,0.2-0.3,0.3-0.4c0.1-0.1,0.3-0.2,0.4-0.2
      c0.1,0,0.3,0,0.4,0.1c0.1,0.1,0.3,0.1,0.4,0.2C102.6,17.8,102.6,17.7,102.6,17.6z"/>
    <path style="fill:#FFF;" d="M125.5,16.1c0,0.2,0,0.4-0.1,0.5c-0.1,0.2-0.3,0.2-0.5,0.3c0.1,0.2,0.2,0.4,0.3,0.7
      c0.1,0.2,0.2,0.4,0.2,0.7c0,0.2,0,0.3-0.1,0.5c-0.1,0.2-0.1,0.3-0.2,0.5c-0.1,0.2-0.1,0.3-0.2,0.5c-0.1,0.2-0.1,0.3-0.2,0.5
      c-0.1,0.2-0.2,0.6-0.4,1c-0.2,0.4-0.4,0.9-0.7,1.4c-0.3,0.5-0.5,0.9-0.8,1.3c-0.3,0.4-0.5,0.7-0.7,0.9c-0.1,0.1-0.3,0.2-0.4,0.3
      c-0.1,0-0.3,0.1-0.4,0.1c-0.1,0-0.3,0-0.5,0.1c-0.2,0-0.3,0.1-0.5,0.1c-0.3,0.1-0.6,0.3-0.8,0.5c-0.3,0.2-0.6,0.3-0.9,0.3
      c-0.1,0-0.3,0-0.4-0.1c-0.1-0.1-0.2-0.1-0.3-0.2c-0.1-0.1-0.2-0.1-0.3-0.2c-0.1-0.1-0.2-0.1-0.4-0.1c-0.2,0.1-0.4,0.2-0.6,0.2
      c-0.2,0.1-0.5,0.1-0.8,0.1c-0.3,0-0.5,0.1-0.8,0.1c-0.2,0-0.5,0-0.6,0c-0.6,0-1.1-0.1-1.5-0.4c-0.4-0.3-0.8-0.6-1.1-1.1
      c-0.1,0-0.2,0.1-0.3,0.1c-0.1,0.1-0.2,0.1-0.3,0.2c-0.1,0.1-0.2,0.1-0.3,0.2c-0.1,0.1-0.2,0.1-0.2,0.1l0-0.2l-0.1-0.1
      c-0.1,0-0.2,0-0.3,0.1c-0.1,0.1-0.2,0.1-0.2,0.2c-0.1,0.1-0.1,0.2-0.2,0.2c-0.1,0.1-0.2,0.1-0.3,0.1c-0.1,0-0.3,0-0.4-0.1
      c-0.1,0-0.2-0.1-0.2-0.3c0-0.1,0-0.3,0.1-0.4c0.1-0.1,0.1-0.2,0.1-0.4c0-0.2,0-0.3-0.1-0.5c0-0.1-0.1-0.3-0.1-0.4
      c0-0.2,0-0.3,0-0.5c0-0.1,0-0.3,0-0.5c0-0.2,0-0.4-0.1-0.5c-0.1-0.2-0.1-0.4-0.2-0.5c-0.1-0.2-0.1-0.3-0.2-0.5
      c-0.1-0.2-0.1-0.4-0.1-0.6c0-0.3,0.1-0.5,0.2-0.7c0.1-0.2,0.2-0.5,0.2-0.7c0-0.1,0-0.2,0-0.2c0-0.1,0-0.1-0.1-0.1
      c0,0,0-0.1-0.1-0.2c0-0.1,0-0.2,0-0.3c0-0.1,0-0.3,0-0.4c0-0.2,0-0.3,0-0.3c0-0.2,0-0.4-0.1-0.6c0-0.2-0.1-0.4-0.1-0.6
      c0-0.3,0-0.6,0.1-0.9c0.1-0.3,0.1-0.6,0.1-0.9c0-0.4,0-0.8-0.1-1.3c-0.1-0.4-0.1-0.9-0.1-1.3c0-0.2,0-0.3,0.1-0.5
      c0-0.2,0.1-0.3,0.1-0.5c0.1-0.2,0.1-0.3,0.1-0.5c0-0.2,0.1-0.3,0.1-0.5c0-0.3,0-0.6-0.1-1c0-0.3-0.1-0.6-0.2-0.9
      c-0.1-0.3-0.1-0.6-0.1-1c0-0.3-0.1-0.6-0.1-1c0-0.2,0-0.4,0-0.6c0-0.2,0-0.4,0-0.6c0-0.6-0.1-1-0.3-1.3c-0.2-0.3-0.4-0.5-0.7-0.6
      c-0.3-0.1-0.6-0.2-1-0.2c-0.3,0-0.7-0.1-0.9-0.1c-0.3-0.1-0.5-0.2-0.7-0.3c-0.2-0.2-0.3-0.4-0.3-0.8c0-0.3,0.1-0.6,0.3-0.8
      c0.2-0.2,0.4-0.3,0.6-0.4c0.2-0.1,0.5-0.2,0.8-0.2c0.3,0,0.6,0,0.8,0c0.6,0,1.2,0.1,1.9,0.2c0.6,0.1,1.2,0.2,1.9,0.2
      c0.1,0,0.2,0.1,0.3,0.2c0,0.1,0,0.2,0,0.4c0,0.1,0,0.3-0.1,0.5c0,0.2-0.1,0.4-0.1,0.6c0,0.4,0,0.8,0,1.2c0,0.4,0,0.8,0,1.1
      c0,0.1,0,0.3,0,0.6c0,0.3,0,0.6,0,0.9c0,0.3,0,0.7,0.1,1.1c0,0.4,0.1,0.7,0.2,1c0.1,0.3,0.1,0.6,0.2,0.8c0.1,0.2,0.2,0.3,0.4,0.3
      c0.1,0,0.2,0,0.3-0.1c0.1-0.1,0.2-0.1,0.3-0.2c0.1-0.1,0.2-0.2,0.3-0.3c0.1-0.1,0.2-0.2,0.3-0.2c0.3-0.1,0.5-0.2,0.8-0.2
      c0.3-0.1,0.6-0.1,0.9-0.1c0.1,0,0.2,0,0.3-0.1c0.1-0.1,0.2-0.1,0.3-0.2c0.1-0.1,0.2-0.1,0.3-0.2c0.1-0.1,0.3-0.1,0.4-0.1
      c0.2,0,0.3,0,0.5,0.1c0.2,0.1,0.3,0.1,0.5,0.2c0.2,0.1,0.3,0.1,0.5,0.2c0.2,0.1,0.3,0.1,0.5,0.1c0.2,0,0.5,0.1,0.7,0.1
      c0.2,0,0.5,0.1,0.7,0.2c0.1,0.1,0.2,0.1,0.3,0.2c0.1,0.1,0.1,0.2,0.3,0.2c0.1,0.1,0.3,0.1,0.4,0.1c0.1,0,0.2,0,0.4,0
      c0.1,0,0.2,0,0.4,0.1c0.1,0,0.3,0.1,0.5,0.3c0.2,0.1,0.3,0.3,0.5,0.4c0.2,0.2,0.4,0.3,0.5,0.5c0.2,0.2,0.3,0.4,0.4,0.5
      c0.1,0.2,0.2,0.4,0.3,0.6c0.1,0.5,0.2,1,0.4,1.5c0.2,0.6,0.4,1,0.7,1.4c0.2,0.3,0.4,0.6,0.5,0.9C125.4,15.4,125.5,15.8,125.5,16.1z
       M123.6,16.8c0-0.2-0.1-0.3-0.2-0.4c-0.1-0.1-0.2-0.2-0.4-0.2c-0.1-0.1-0.2-0.1-0.3-0.2c-0.1-0.1-0.1-0.2,0-0.3
      c0-0.1,0.1-0.2,0.1-0.2c0.1,0,0.1,0,0.2,0c0-0.2-0.1-0.5-0.3-0.8c-0.2-0.3-0.3-0.6-0.4-0.8c-0.1-0.2-0.1-0.3-0.1-0.5
      c0-0.2-0.1-0.3-0.1-0.4c0-0.1-0.1-0.3-0.2-0.4c-0.1-0.1-0.2-0.2-0.4-0.4c-0.1-0.1-0.3-0.2-0.4-0.2c-0.1,0-0.2-0.1-0.2-0.2
      c-0.1-0.1-0.1-0.1-0.2-0.2c-0.1-0.1-0.1-0.2-0.2-0.4c-0.1-0.2-0.2-0.3-0.3-0.4c-0.1-0.1-0.2-0.1-0.3-0.2c-0.1,0-0.3-0.1-0.4-0.1
      c-0.2,0-0.3-0.1-0.5-0.1c-0.4-0.1-0.8-0.3-1.1-0.4c-0.4-0.1-0.8-0.2-1.2-0.2c-0.8,0-1.5,0.1-2.1,0.4c-0.6,0.2-1,0.6-1.4,1
      c-0.4,0.5-0.6,1-0.8,1.6c-0.2,0.6-0.3,1.3-0.4,2c0,0.3-0.1,0.6-0.1,0.9c-0.1,0.3-0.1,0.6-0.2,0.9c-0.1,0.3-0.1,0.6-0.2,0.9
      c-0.1,0.3-0.1,0.6-0.1,0.9c0,0.1,0,0.2,0,0.3c0,0.1,0.1,0.1,0.2,0.2c0.2,0.2,0.3,0.5,0.4,0.8c0,0.3,0.1,0.5,0.1,0.8
      c0,0.2,0.1,0.5,0.2,0.7c0.1,0.2,0.3,0.3,0.6,0.4c0.2,0.1,0.3,0.1,0.4,0.2c0.1,0.1,0.2,0.1,0.2,0.2c0.1,0.1,0.1,0.2,0.2,0.3
      c0.1,0.1,0.1,0.2,0.2,0.3c0.3-0.1,0.5-0.1,0.8-0.1c0.3,0,0.5-0.1,0.8-0.1c0,0.2,0.1,0.3,0.2,0.4c0.2,0.1,0.3,0.2,0.5,0.2
      c0.2,0,0.4,0.1,0.6,0.1c0.2,0,0.4,0,0.5,0c0.2,0,0.4,0,0.7,0c0.2,0,0.4-0.1,0.7-0.1c0.2-0.1,0.4-0.1,0.6-0.3
      c0.2-0.1,0.3-0.3,0.4-0.5c0.2-0.3,0.4-0.5,0.6-0.7c0.2-0.1,0.5-0.3,0.7-0.4c0.2-0.1,0.5-0.2,0.7-0.4c0.2-0.2,0.4-0.4,0.5-0.8
      c0.1-0.4,0.3-0.9,0.4-1.3c0.1-0.4,0.2-0.9,0.2-1.3c0-0.2,0-0.3,0-0.5c0-0.2-0.1-0.3-0.1-0.4c0.1,0.1,0.3,0.2,0.4,0.3
      c0.2,0.1,0.3,0.2,0.5,0.2c0.1,0,0.1,0,0.1-0.1C123.6,17,123.6,16.9,123.6,16.8z"/>
  </g>
</svg>
