<svg xmlns="http://www.w3.org/2000/svg" viewBox="0 0 156 186"><path d="M152.1 89.9c-1.5-.3-3.5-.7-4.8-1-6.1-1.8-13.4-3.5-20.5-4.8-4.2-.7-9.1-1.6-12.6-2.5-1.8-.5-3.5-2.5-5.4-3.3-1.9-.8-4-2.1-6.2-1.2.2.9 1.5.6 2.5.6 1.9 1.8 5.9 2.6 6.4 5.2-1.8-1.2-4.6-2.5-7.7-1.7.4 1.3 2 .9 2.9 1.2 2.1.8 4.1 2.3 5 4.1-2.3-.6-5.5-3.2-8.1-1.4 2.6 1.4 7.6 1.4 7.7 4.6-2.1-.8-5.5-2.5-8.3-1.2 2.7 1.2 7 1.8 6.6 5.4-2.2-.7-4.4-3.6-7.3-2.3 1.8 1.2 6.7 2.2 4.8 5-1.9-.3-2.7-2.8-5-2.1.5 2.1 4.3 1.9 3.5 4.6-2.2.1-3.1-2.2-5-1.9.7 1.7 3.4 2.4 3.1 4.4-2.4-.4-4.5-4.2-7-2.5 1.6 1.3 7.1 3.1 4.1 5.6-1.5-1.5-3-4-5.6-3.7 1.3 1.8 3.5 2.9 4.8 4.8-.5.3-1 .7-1.5 1-.8-1.8-2.5-3.5-4.4-3.4 1.4 1.2 2.2 2.9 4.1 3.6-.6.4-1.1.8-1.7 1.2-.3-1.4-2.2-2.6-3.5-2.3.7 1.1 1.5 2.2 2.8 2.8-1.7 1.3-3.4 2.6-5.2 3.8-.9 0-.6-1-1.7-.8-1.8 1.7-4.9 5.6-7.9 2.9-1.3 0-1.8.8-3.3.6-.1-.8.9-1.2.2-1.9-2.1.4-5 1.7-7.9 2.1-.8-.1-.5-1.2-.8-1.7-2.1-1.1-6.2-.1-7.5-2.1.4-.6 1.7-.3 1.5-1.4-3.6.1-6.3-.7-7.9-2.7.6-.5 2.2 0 2.3-1-1.7-.5-3.8-.6-5-1.7.2-.7 1.6-.2 1.5-1.2-2-1.1-5.4-1.9-6.2-3.5 1 .3 3.2.3 4.1 0-2.1-1.8-6.5-2.4-6.8-5.2 1.3.6 4.8 1.9 6.2.4-2.1-1.5-5.5-1.5-6.4-4.1 2.7-.1 3.7.2 5-.8-1.5-.8-2.6-.7-3.5-2.3-1.5.8-2.8-.2-3.3-1.7 1.4.3 4.7 1.7 5.6 0-2.3-1.2-6.4-1.8-7-3.9 2.3.2 4.5 1.7 6 0-1.2-1.3-5.3-.9-5.4-2.7 1.5.1 4.3 1.9 5.6.2-.3-1.3-1.8-.7-2.7-1-2.2-.7-4.2-2.3-4.4-4.1 1.5 1.1 4.9 3.3 7 1.7-1.9-1.1-6.4-2.5-6.6-5.4 2 .9 5.7 4 7.9 2.1-.3-1.5-2.1-.8-3.1-1.2-1.8-.8-3.5-2.7-3.7-4.1 2.1 1.1 6 3.1 7.9.4-2.5-1-7.1-.9-6.6-4.1 1.7.5 4.5 2.7 6 .8-1.1-1.6-4.4-1.1-4.6-3.7 1.9.6 4.3 2.7 6.8 1.2-1.2-1.7-4.3-1.5-5.2-3.5 1.9-.5 4.1.6 5.6-.4-.3-1.5-3.3-.4-3.9-1.7 1.3-2.3 3.5-4.4 6-6.4.8-.6 2-.9 3.1-1.5 1.3-.7 2.5-1.7 4.1-2.3 2.6-.9 6.6-2.4 8.3-2.5.6 0 1.1.3 1.7.2 1.2-.2 2.3-1 3.5-1 .7 0 1.4.2 2.2.2.7-.1 1.1-.6 1.9-.4.3.1.6.3.9.3.4 0 .8-.1 1.2-.1.8 0 2 .2 2.8.3 1.3.3 2.6.8 3.9 1 .7.2 1.4.3 2.1.5 2.2.6 4.2.7 4.8 2.6-2.8.1-7.4-.8-9.5 1 2.7 1 6.4 0 8.5.6 3.6 1.1 7.7 3.5 9.5 5.2-1.6-.5-3.7-1.2-5.8-1.5-2.2-.3-5.1-.3-6.8.6 2.9-.2 5.8.1 8.6 1 1.2.4 2.4.9 3.6 1.5 1 .5 2.4 1 3.2 1.9.3.3.5.7.7 1.1.1.2.4 1 .5 1-3.5-1.4-7.9-3.9-11.6-2.1 4.8 1.5 10.9 1.8 13.1 6-3-1.3-7.2-1.8-10.8-1.5-.8.1-2.1-.7-2.5.4 5.9-.5 13.2 1.4 15.3 5.2-4.1-.8-8.5-3.5-13.1-1.5l1.2.6c5.9-.7 11.3 1.3 13.1 5-3.6-.7-7.3-4.2-11.4-2.3 4.9 1 10.3 2.7 11.8 6.4-2.5-1-4.5-2.7-8.1-2.7 1.3 2 3.9 1.9 6.2 3.5 1.2.9 2.3 3 3.7 3.5 1.7.7 3.8.3 6 .6 3.5.5 7.4 1.2 11.4 1.9 3.5.6 7.5 1.2 10.8 2.1.7.2 1.4.7 2.1.8 1.1.2 2.1 0 3.1.2 2.7.6 6.1 3 8.7 1.2-.5-1.5-2.4-1.5-3.5-1.7-5.5-.8-9.7-2-14.9-2.7-6.9-.9-13.9-3.7-19.9-4.1-1.4-.1-2.3.6-3.1-.4 1.3-1.4 3-.2 4.4 0 6.5.8 13.7 1.5 19.5 2.3 2.2.3 4.4.9 6.2 1 .7 0 1.4-.3 2.1-.2 3.2.4 6.3 2.1 9.3 1.5.1-3-2.7-2.1-5-2.3-11.3-1.1-24.8-3.9-36.7-5.4 11.1-1.2 24.1-1.3 36.3 0 1 .7 2.4 1 3.7 1.5.9-.5 1.2-1.6 1.2-2.9-12.5-1-27.9-.9-40.4-1.5 3.5-1.3 7.5-1.1 11.4-1.5 9.1-.9 18.5-3 26.9-1.7.5-2.1-2.1-1.6-3.3-1.9-5.2-1-10.6.6-16.4 1-6.8.5-14 1.4-19.7 1.2.9-1.6 2.9-1 4.6-1.2 9.5-1.5 19.4-4.7 30.5-4.8.8-1.1 3.6-.3 3.5-2.3-1.7-1.6-2.9.9-4.4 1.2-.6.1-1.7-.2-2.3-.2-2.6.1-5.4 1.2-8.3 1.7-7.2 1-15.3 1.5-22 2.7-1.2.2-2.3 1.3-3.5.2 1-1.2 2.6-.9 3.9-1.2 6.5-1.9 13.6-4.4 20.5-5.8 1.9-.4 4-.5 5.8-1 .9-.3 1.6-.9 2.5-1 2.2-.4 4.7 0 6.2-1.9-.8-2.2-2.9-.2-4.1.2-6.7 2.4-14.1 3.1-21.5 5-5 1.3-9.9 3.9-14.3 3.3 11.9-4.4 24.1-8.4 36-12.6 1.6.6 3.4-.3 3.7-1.7-1.4-1.3-2.9.3-4.1.8-1.5.6-3.3 1.3-4.8 1.7-.8.2-1.7 0-2.5.2-2.3.6-4.5 1.8-6.8 2.5l-7.5 2.1c-4.9 1.4-9.4 4.5-14.3 3.9 4-2.3 8.6-4 13.3-5.8 2.9-1.1 6-2 8.9-3.1 3.8-1.5 7.2-3.9 11.4-5 1.7-.4 4.4-.4 5-2.7-.5-.4-1.1-.9-1.7-.6-4.1 1.7-8.9 4.1-13.1 5.8-8.6 3.4-17.8 6.5-26.1 9.8-.1-.2-.2-.4-.4-.5 3.4-3 8.3-4.5 12-7.2 3.9-1.4 7.8-3.7 11-5.4 2.4-1.3 5.1-2.6 7.7-3.7 2.5-1.1 6.1-1.7 7.3-4.1-2-.5-3.3 1.3-4.8 2.1-1.6.8-3.3 1.5-5 2.3-8.2 3.7-16.3 8.2-24.4 11.8-1.6.7-3.4 1.7-5.2 1.7 4.9-4.6 11.1-8 17.2-11.4h1.7c.7-.6 1-1.6 1.7-2.3.5 0 1.2.1 1.4-.2 1.4-1.4 2.8-2.7 5.2-3.1 2-2.7 7.5-3 8.7-5.8-1.7-1.6-3 1.7-5.4 1.5-1.1 1.8-3.1 1.9-4.8 2.7-4.4 2.3-8.1 6-12.8 7.9-1.9 1.5-4.4 2.5-6.6 3.7-2.2 1.3-4.4 2.8-6.6 3.3.3-1.2 1.7-1.2 2.7-1.7 5.8-6.3 14.1-10.1 20.1-16.2 3.2-2.4 8.7-3.6 9.7-7.5-2.4-.1-3.6 1.9-5.2 3.1-3.7 2.8-7.6 5.6-11.4 8.3-3.8 2.7-7.9 5.1-11.8 7.9-1.6 1.2-2.9 3-5.2 3.3 4.1-5.2 9.1-9.5 13.9-14.1 2.3-2.2 4.7-4.7 7.3-6.6 2.6-2 6.1-3.4 7.5-6.6-2.4 0-3.8 2.1-5.4 3.5-2.7 2.4-6 4.3-8.7 6.8-2.8 2.6-5.6 4.9-7.9 7.9-4.1 2.1-6.4 7.2-10.6 8.5 8.4-11.2 17.4-21.7 28-30.7-.5-1.3 1-1.5.4-2.3-1.3-.1-1.4 1.1-2.5 1.2-3.2 5.2-8.6 8.1-11.8 13.3-6 5.2-10.7 11.6-16.6 16.8 5-8.4 11.7-15.1 16.8-23.4 2.1-1 2.8-3 4.1-4.6 1.7-1.9 4.3-3.8 4.4-6.6-1.7.3-2.7 2-3.5 3.3-2.8 4.2-6 7.8-9.1 11.6-4.3 5-7.9 10.6-12.6 15.1 4.9-8.8 11-17.1 16.4-25.3.6-.9 1.5-1.4 2.1-2.3.4-.6.5-1.5.8-2.1.5-.7 2-1.3 1.2-2.5-1.1 0-1.6.8-2.1 1.5-1.5 2.1-2.5 4.5-4.1 6.6-4.8 6.2-8 13.6-13.9 18.6-1.2 2.2-2.8 5.1-4.8 5.8 2.8-5.4 6.3-10.4 9.3-15.7 3-5.3 5.9-10.8 9.9-15.3-.1-1.4 1.3-2.2.8-3.3-2.9 1.3-3.6 4.6-5.2 7-2.6 4-5.4 8.1-7.9 12.4-2.6 4.4-5.6 9.1-8.3 12.8-.6.8.3 1.8-.8 2.1-2.2-.8-.2-3 .2-3.9 3.6-7.3 7.1-14.3 10.8-21.3 1.9-3.6 5.1-6.8 5.2-11-.3 0-.5-.1-.6-.2 0 .3-.4.2-.4.4-1 1.4-1.4 3.3-2.3 4.8-4.2 7.3-8.1 15-11.8 22.4-1.4 2.7-2.9 5.4-3.8 8.4-.6-.2-1.1-.3-1.6-.5 2.7-6.8 5.3-13.5 8-20.3 1.3-3.3 2.6-6.6 4.3-9.7 1.4-2.5 3-5.1 2.9-7.9-.8-.1-1.5.4-2 1s-.7 1.4-.9 2.1C97.4 19.6 91.8 30 86.2 40.4c1.9-7.5 3.9-15.1 6.3-22.5 1.6-4.7 3.3-9.3 4.2-14.1l-.6-.3c-.3.5-.5 1-.6 1.5-3.9 10.7-5.8 22-10 32.6-.5 1.3-1.1 2.6-2 3.6-.2.2-.6.5-.9.5-.5.1-.5-.2-.5-.6.1-1 .1-1.9 0-2.8 1.9-4.9 2.2-10.8 3.1-16.6.2-1 .6-2.1.8-3.1.3-1.7.1-3.7.6-5.2.2-.5.7-.9.8-1.5.2-1 .1-2.1.4-3.3.6-2.3 2.2-4.8.6-7.5h-.6c0 .3-.3.3-.4.6-1.9 12.1-4.5 24.5-6 36.3-.1.7-.5 1.4-.8 2-.2.4-.5 1.6-1 1.6h-.8c.5-6.6.8-13.2 1.1-19.8.3-6.1.6-12.2 1.8-18.2.1-.3.7-3.3.7-3.3-.3-.1-.6-.4-1.4-.3-.3.1-.5.3-.6.6-1.4 12.6-1.5 27.6-3.7 40-1.1-1.6-1-3.7-1-5.6-.2-4.8-.6-10.5-.4-14.5.2-6.7-.9-13.8-.2-20.1-2.9-.4-2.5 3.5-2.3 5 .2 1.5 1 2.7 1 4.4.2 6.6.5 13.2.2 19.7-.1 3.8.8 7.7-.8 10.8-.5-3.4-1.8-7.9-.8-11.4-.3-.4-.8-.8-.8-1.5-.8-4.5-.8-9.8-1.2-14.9-.2-2.9-1-5.5-.8-7.9C69.7 3 71 .2 68.1.2c-.2 7.4 1.5 16.1 2.3 24.9.3 3.2.7 6.4.8 9.5.1 2.5.3 5.6-.6 7.9-1.5-4-1-7.9-1.5-11.8-.3-2.8-1.3-5.2-1.7-7.5-.4-2.5-.6-5.4-1-8.3-.5-3.2-1-6.6-1.2-9.3-.2-2.4 1.3-3.4 0-5-2.1-.1-1.6 2.1-1.5 3.5.7 6.3 2.3 14.4 2.7 20.5 1.2 3.9 1.8 10 1.2 15.1-1.7-2.4-1.4-5.5-2.1-8.5-1.4-6-2.8-12.3-3.9-18.6-.4-2.1-1.3-4.3-1.5-6.4-.2-2 .1-3.5-1.5-4.1-.9 1.1.2 2.2.4 3.3.8 3.2 1.1 7 1.7 10.4.9 5.6 2.6 10.9 3.1 16.6 1.2 2.8 2.4 7.6 1.9 10.8-1.9-.9-1.8-3.2-2.3-5-2.7-9.5-6.2-19.9-8.1-29.8-.3-1.5.3-3.3-1-4.6-2.2.1-1.3 1.8-1 2.9 2.1 7 3.8 13.8 5.8 20.7.8 2.8 1.9 5.8 2.3 8.3.5 3.2 2.1 5.5 1.2 8.3-1.1-2.8-2.4-5.5-3.3-7.9-2.6-6.7-5.4-14.5-7.5-21.8-.6-2.1-1.6-4-2.1-6-.2-.9.4-2.1-.6-2.7-2.5.4-.2 2.6-.4 4.4 4.2 10.5 7.7 22.8 11.2 33.4-1.4-.5-1.5-2.4-1.9-3.9-3-4.7-5.1-10.3-7.7-15.7-2-4.2-3.9-8.8-5.4-13.1-.3-.9.1-2.2-1.5-2.5-1.5 1.5.8 3.9.8 5.8.8 1 1.4 2.1 1.9 3.3 3.3 8.7 8.3 17.3 10.6 26.5-1.9-3.5-4.7-6-5.8-10.4-2.5-3.1-4.4-6.7-6.6-10.6-1.7-2.9-3.9-6.1-5-8.9-.4-1 .1-2.4-1.5-2.7-2.1.8-.4 2 .2 2.9.7 1.1 1.2 2.6 1.7 3.5 1.2 2.2 2.9 4.3 4.1 6.4 1.3 2.2 2 4.9 3.3 7.3 1.8 3.3 4 6 5 9.5 1.5 1.6 3.4 3.8 3.3 6.2-2.4-1.9-3.7-5-5.4-7.5-5.2-7.6-10.4-15.5-15.2-23.7-.2-.8-.2-1.8-.8-2.1-3.5 1 1.4 6.1 2.5 7.9 3 4.9 5.7 8.7 8.7 13.1 1.7 2.4 2.9 4.7 4.1 6.8 1.2 1.9 3.5 4.1 3.3 6.2-4-2.5-5.7-7.4-9.5-10.2-3.4-5.4-8.1-9.5-11.4-15.1-2.4-1-1.9-6-5.4-5.2 4.4 8.4 11 14.7 16.4 22.2-.2.6.3.6.2 1.2 2.4 1 3.3 3.4 4.8 5.2 1.1 1.4 3.4 2.4 2.9 4.4-2.9-1.1-4.7-3.8-6.8-6.2-4-4.6-8.9-8.9-13.1-13.3-2.2-2.3-4.9-4.5-6.4-6.8-.9-1.3-.8-3-2.3-3.1-3.5-.3-.2 3.1.6 3.9 5.5 5.3 10 10.2 14.9 15.5 2.5 2.7 5.8 5 7.3 8.5 1.7.4 3.1 2.2 3.1 3.5-5.5-5-11.3-9.3-16.6-14.3-2.8-2.7-6-4.8-8.7-7.5-1.3-1.2-1.9-3.3-4.1-3.3-1.4 2 1.2 2.7 2.3 3.5 2.8 2.1 4.6 4.9 7 6.8 1.7 1.3 3.5 2.5 5 3.9s2.8 3.1 4.4 4.6c3.2 3.1 7.7 5.1 9.3 8.9-8-5.2-16.1-11.8-23.8-17-1.2-.8-2.6-1.4-3.7-2.3-1.4-1-2.2-3.9-4.6-2.9.8 2.9 4.1 4 6.4 5.6 5.5 3.7 11 7.4 16 11.6 2.7 2.3 5.4 4.8 7.3 7.5-5.6-3.1-10.9-6.7-16.4-9.9-4.1-2.5-8.6-4.8-12.4-7.5-1.3-.9-2.3-2.7-4.1-2.5-1.5 2 1.3 2.5 2.5 3.3 1 .6 1.8 1.7 2.5 2.1 1.1.6 2.2.9 3.3 1.5 2.1 1.2 4.6 2.6 6.8 3.9 3 1.8 6 3.8 8.9 5.6 3 1.8 6.7 3.3 8.1 6.4-2.3.3-3.8-1.7-5.6-2.7-7.1-4-15.4-7.2-22.2-11.4-2.1-1.3-4.1-4-6.8-3.5.2 1.5 1.8 2 2.9 2.7 3 1.9 6.2 3.9 9.7 5.2 5.2 3.6 11.8 6.8 16.8 10.2 1.1.7 2.7 1.3 3.1 2.5-1.4.4-1.9-.8-2.9-1.2-1.3-.6-2.8-.8-4.1-1.5-6.5-3.3-14-6.2-20.1-9.7-3.3 0-5.1-4.4-8.1-2.7.7 1.8 2.8 2.3 4.4 3.1 1.6.8 3.1 1.9 4.8 2.7 2.7 1.3 5.9 1.9 8.5 3.3 1.4.8 2.7 1.8 4.1 2.5 4.2 1.9 8.7 3.7 12.2 6.2-9.9-3.5-20.1-6.8-29.4-11H9.1c-1.4-.7-2.6-2.4-4.6-1.9-.6 2.7 2.5 3.4 5 3.7 8.8 3.6 18.5 6.2 26.3 10.8 1.6-.1 2.9.2 3.3 1.2-1.4.6-2.5-.7-3.7-1-1.1-.3-2.2-.1-3.3-.4-.9-.3-1.8-1-2.7-1.2-6.2-1.7-12.5-3.2-19.1-4.6-1.9-1.2-5-2.1-7.3-2.3.5 1.8 2.9 2.3 4.4 2.9 3.5 1.4 7.5 1.7 11.4 2.9 2.8.9 5.4 2.4 8.1 3.1 2 .5 4 .9 5.8 1.5 1.8.6 4 .6 5.2 2.3-9.2-1.5-18.8-3.7-27.6-5.6-2.8-.6-5.5-2-8.3-2.1 0 2.3 3.3 2.5 5.2 3.1 2.1.6 4.6 1.4 6.8 1.9 1.5.3 3.1.1 4.6.4 1.1.3 1.9 1.1 2.9 1.2 6.1.9 11.4 1.8 16 3.7-8.7-.2-16.9-1.8-25.7-2.3-1.9-1.3-5.3-.7-7.9-1.2-1.2-.3-2.2-1.3-3.1-.4-.9 2.7 2 2.2 3.7 2.5 1.2.2 2.3.7 3.7.8 1.5.1 3.2-.2 4.6-.2 5.1.2 11.1 1.9 16.6 2.7 2.6.4 5 0 7 1.2-12.3.3-23.8 1-35.4.3-.2 2 2 1.5 3.3 1.7 7.9.8 16.6-.1 24.7.2 2.7.1 5.4-.2 7.7.8-9.4.7-18.7 2.7-28 2.9-3.1.1-7.5-1.5-8.7 1 10 1.2 21.6-.6 32.1-.4-8.4 2-18.4 3.8-27.6 4.6-1.1.1-3-.7-3.5 1 1.4 1.8 3.7.4 5.4.2 5.4-.8 11.5-1.6 17.4-2.1 5-.4 9.9-1.9 14.5-1.2-4.9 1.9-10.4 2-15.7 3.3-1 .2-1.9 1-2.9 1.2-3.4.8-7.4 1.6-10.8 2.1-2.4.3-5.3-.4-7 1.7 2.4 1.5 5.7-.2 8.7-.6 9.2-1.4 19.2-3.7 27.6-4.4-2.4 1.6-5.5 1.9-8.5 2.9-2.8.9-5.5 2.4-8.3 3.3-4 1.3-8.1 2.1-11.8 2.9-2.2.5-5.9.4-6 3.3 2.8.5 5.4-1.7 8.3-2.1 2.3-.3 3.1-.9 4.8-1.2 4.7-1 8.2-2.3 12.4-3.5 3.5-1 6.6-2.8 9.9-3.1-1 1.1-2.3 1.9-4.4 1.9-.4.3-.3 1.1-1 1-4.1 1.5-8.1 3.5-12.2 5.2-2.3.9-4.8 1.9-7.3 2.3-2.8 1.6-7.3 1.4-9.1 3.9 1.5 1.7 3.2-.2 4.6-.6 9.7-3.3 20.6-7.5 30.5-10.4-6.6 3.8-13.7 7.2-21.1 10.4-3.9 1.6-8.2 2.7-12 4.6-.1.6.2.8.2 1.2 3 .3 5.7-2 7.7-2.9 1.3-.6 2.8-.8 4.4-1.5 4.8-1.9 9.5-4.1 13.9-6 3.5-1.5 6.7-3 9.7-3.7-2.8 2.4-6.4 4.2-9.9 5.8-7.1 3.3-14.1 7.3-21.5 10.2-1.1.4-2.8.2-3.1 1.9 1.6 1.6 4 .3 5.6-.4 2-1 3.9-3.2 6.4-3.1 6.9-4.4 15.2-7.5 23.2-10.8-1.9 2.1-4.9 2.6-7.3 3.9-1.2.7-2.1 1.7-3.3 2.3-6.7 3.3-14.3 6.6-20.7 9.7-.7.3-2.1-.1-2.1 1.2 1.9 1.5 4.5-.1 6.2-1 4-2.1 7.9-3.9 12.2-5.6 3.5-1.4 6.5-3.5 9.7-5 2-.9 3.9-1.9 5.6-2.3-4.5 2.8-8.7 5.9-13.5 8.5-3.8 3.8-9.8 5.6-14.5 8.3-.7.4-1.8 1.2-1.9 2.3 2 1 3.7-1.4 5.4-2.3 2-1.1 4-2.1 5.8-3.1 7.3-4 15-8.2 22-12.2-5.5 5.4-12 9.7-18 14.3-2.9 2.2-6.1 4.3-9.1 6.2-.7.5-1.9.4-2.1 1.7 2.5 1.7 5-1.4 6.8-2.7 2.2-1.6 4.7-2.9 7-4.4.9-.6 1.6-1.7 2.5-2.3 3.8-2.6 7.8-5.2 11.2-7.7-1.8 3.3-5 5.5-7.7 8.3-.9 1-1.5 2.3-2.5 3.3-1.6 1.7-3.6 3.2-5.4 4.8-1.6 1.4-4.4 2.6-4.6 5.2 2.3-.5 4.1-2.6 5.8-4.4 1.8-1.9 3.6-3.7 5.4-5.4 4.7-3 8-8.5 12.4-11.2-3.4 4.8-7.8 8.7-10.8 13.9-3.3 1.9-5 5.9-7.7 8.5-1.2 1.1-3.7 1.8-2.7 4.1 2.4-.1 2.3-2.5 4.1-3.1 5-6.8 11.3-13.4 16.8-19.5.9-1 1.3-3.1 3.1-3.1-2.1 3.7-5.4 6.3-6.8 10.8-2.9 2.9-5.5 6.2-7.7 9.9-1.6.9-2.5 2.5-3.3 4.1-.8.4-2 1.2-1.7 2.1 2.8-.6 4.4-3.5 6-5.6 3.6-4.7 7.1-9.4 10.6-13.9 1.7-2.2 3-5.1 5.4-6.4-4.7 8.4-10.1 16.1-14.9 24.4-1.3 1.5-3.2 2.4-3.5 4.8 3.1-.5 4.1-4.9 6.4-6.8 0-2 1.5-2.5 2.3-3.5 1.3-1.7 2.4-4 3.7-6 1.4-2.1 2.8-4.1 4.1-5.8.6-.8 1.1-2.4 2.5-2.3-.6 1.2-1.5 2.1-1.7 3.7-2.1 1.7-3.1 4.4-4.6 7-1.1 2-2.7 3.8-3.5 5.6-.3.6-.3 1.5-.6 2.1-1.4 2.7-5 4.6-4.6 8.1 2.3-1.4 3-4.5 5.2-6 4.1-8.5 9.8-16.6 14.9-23.4-2.4 6.8-6 12.4-8.5 19.1-1.4 1.6-2.4 3.7-3.5 5.6-1.2 1.9-2.9 3.7-3.1 5.8 3.6-3 5.7-7.3 7.9-11.6 1-1.9 2.5-3.6 3.5-5.6.8-1.6 1.4-3.3 2.3-5 .9-1.6 2.1-3 2.9-4.6.7-1.4.7-3.6 2.7-3.9-3.3 9.7-7 19.7-11.8 27.8-.6 1-1.5 1.7-2.1 2.7-.6 1.1-1.6 2.9-1.2 4.1 1.5-.2 2.2-2.1 3.1-3.5.9-1.5 1.6-3.3 2.7-4.4-.2-.8.3-1 .2-1.7 1.1-.9 1.3-2.7 2.3-3.7 1.6-5.7 4.5-11.2 7-15.7.8-1.4 1.1-3.8 2.9-3.9-3.1 10.5-7.4 19.8-11.2 29.6-.8.8-1.6 1.6-1.5 3.3 1.5-.3 1.2-1.9 1.7-2.9.8-1.5 2.1-2.8 2.9-4.4.3-.6.3-1.4.6-2.1.3-.6.9-.9 1.2-1.5 3.2-6 4.3-13.3 8.1-18.9-.5 4-.7 8.3-2.7 10.8-.2.9.3 1.1.2 1.9-.2.8-.5 1.4-.8 2.1-.3 4.1-1.4 6.9-2.5 10.2-.9 2.6-2.5 5.7-1.7 8.1 2-1.9 2.3-5.2 3.1-8.1.3-1.1 1-2.2 1.2-3.3.2-.8 0-1.7.2-2.5.3-.9 1-1.6 1.2-2.5 1.3-5.6 1.8-11.3 4.4-16-.3 7.1-.6 12.9-1.7 20.5-.3 1.9-1 3.9-1.2 5.8-.5 3-1.1 6.1.4 7.3 0-5.5 2.7-10.4 3.3-16.2.2-2.2-.3-4.6 0-7 .1-.7.5-1.3.6-2.1.5-4-.1-9 2.5-11.6.8 11.4-.9 26.8 0 36.7.9-2.2.7-5.5.8-8.3.4-8.9.2-19 1-27.1.8 4.3 2.4 10.6 1.2 14.9 2.1 3.3 1 8.8 1.2 13.5 0 .9.4 1.7.4 2.5 0 1.3-1.1 3.6.6 4.4 1.2-8.8-.7-19.9-.8-29.4 0-2.4-.2-5 .8-7 1.1 9 2.5 21.2 2.9 31.9 0 1.4-1 3.9 1 4.4.3-11.6-3.3-24.3-1.2-36.5 1.7 4.5 2.1 10.9 2.9 15.5.1.3-.2.9-.2 1.2.1 1.2.9 2.6 1 3.9.2 1.5 0 3.1.2 4.6.4 2.7 1.2 5.2 1.5 7.5.1 1.2-.8 2.6.8 3.3 0-10.7-3.8-21.6-3.3-32.1 2.1 1.6 1.8 4.8 2.5 7.3.3.9.8 1.6 1 2.5.5 2.1.5 4.5 1 6.6.6 2.6 1.9 5.1 2.1 7.7.1 1.3.3 1.9.4 2.9.2 1.6-.5 3.8 1.7 4.4.8-1-.2-1.9-.4-2.9-1.1-4.6-1.3-10.5-3.1-14.1-.8-5.6-3.5-12.7-2.9-19.1 3.5 5.6 4.6 13.5 7.3 19.9.5 4.8 1.2 11.1 3.5 14.7.9-3.1-1-6.4-.8-9.3-1.5-1.2-1.2-4.1-2.5-5.4.2-.2.2-.7.2-1.2-1.6-2.1-1.3-5.2-2.1-8.1-.6-2-1.5-4.2-2.1-6.2-.6-2-2-4.3-.8-5.8-.1 2 2.3 3.2 2.3 5.8 3.8 7.8 8.3 16.4 11.2 24.7.3 1 .2 2.8 1.7 3.1.8-1.5-.4-3.1-.8-4.4-2-5.9-4.4-11.6-6.8-16.4-1.8-3.6-3.8-7.3-5.4-11-.5-1-1-2.3-.6-3.5 2.3 1.1 2.8 4.2 4.1 6.4 1.7 2.8 3.5 5.7 5 8.5.8 1.6 1.5 3.2 2.7 4.2.4.7.7 1.4 1 2.1.2.7.7 1.5.6 2.5 2.5 2.4 3 6.7 5.2 9.3.9-4-2.8-6.8-3.9-9.7-.5-1.2-.5-2.2-1.3-2.7-.4-.8-.8-1.5-1.2-2.3-.1-.2-.2-.4-.3-.5-.8-2.1-2.7-4-2.9-6.9-1.5-1.8-2.5-4-3.7-6-1.2-1.9-3-4-2.9-6.4 1.9.3 1.8 2.3 2.5 3.5 1.7 2.8 4.1 5.5 6 8.5 1.7 2.7 3.3 5.3 5 7.5 1.4 1.8 2.7 3.9 3.9 5.8 1.3 1.9 1.9 4.4 3.9 5.8-.7-4.7-4.3-7.8-6.2-11-2.5-4.2-4.7-8.1-7.3-12.2-1.9-2.2-4.6-4.8-5-7.9 2.2 0 2.6 2.4 3.5 3.7.7 1 1.8 1.7 2.5 2.7 1.5 1.9 2.6 4 4.4 5.6 1.8 3 3.7 6 5.8 8.7 2.1 2.7 3.8 5.8 6.4 8.1-1.4-4.3-4.7-7.6-7-11.2-4.1-6.4-8.6-12.1-12.6-18 1.4.1 1.7 1.5 2.5 2.3 3.3 3.4 7.2 6 9.7 10.2.7.1 1 .6 1.7.8 2.1 2.8 4.2 5.4 6.8 7.7 1.1 1.9 2.4 3.7 4.1 5-.1-3.4-4.3-4.4-5-7.9-5-4.8-9.8-10.3-14.5-15.3-1-1-2.2-2.2-3.1-3.3-.8-1-2.3-2.5-1.7-3.9 7.1 5 11.9 12.3 18.6 17.6 0 .7.5 1 .6 1.7 3.5 2.2 6.1 5.4 9.1 8.1.5-1.7-1.5-2.6-2.5-3.7-1.7-2-3.1-4-5.2-5.4-4.4-5.9-10.1-10.4-14.9-15.7-1.2-1.5-3.7-2.6-3.7-4.6 2.5 1.4 4.5 3.2 6.2 5.4 5.9 3.9 11 8.8 15.7 13.9.5.2 1.4.1 1.7.6.3.5.6.9.6 1.7 1 .8 1.9 1.7 2.7 2.7 1.6 0 1.5 2.5 3.1 1.9-.9-3.2-3.9-4.9-6-7-2.7-2.7-6-5.2-8.1-8.1-3.1-2.4-5.8-5-8.9-7.5-2.1-1.7-4.9-3.1-5.6-5.8 4 1.4 7.8 5 11.2 7.7 1.8 1.4 4 2.3 4.6 4.4 2.9.7 5 2.3 6.2 4.8 1.9-.4 1.8 1.2 2.7 1.9 3.5.6 4.8 4.4 7.7 5-.6-1.9-2.3-2.5-3.7-3.5-2.3-3.1-5.7-4.6-8.7-7-1-.8-1.8-1.9-2.9-2.7-3-2.2-5.7-4.3-8.5-6.6-2.6-2.1-5.6-3.4-6.2-5.8 5.2 2 9.2 5.2 13.3 8.3 7.2 4.1 13.2 9.3 19.7 14.1-.3-3.6-4.2-5-6.8-6.8-2.7-1.9-5.4-4.3-8.1-6.2-2.7-2-5.7-3.6-8.5-5.6-1.3-.9-2.7-1.9-4.1-2.9-1.3-.9-3.7-1.4-3.7-3.5 7.6 2.8 12.9 7.8 20.3 10.8 3.8 2.9 7.8 5.6 12.2 7.9.7.7 1 1.8 2.3 1.9-.3-2.9-3.6-3.9-5.6-5.2-2.8-1.8-6.2-3.4-7.9-5.6-4.6-2-7.8-5.5-12.6-7.3-2-2.2-5.7-2.6-7.3-5.2 3.2.1 4.6 2 7.3 2.7 5.4 3.2 11.9 6.1 17.4 9.3 1.3.8 2.6 1.7 3.9 2.5 1.2.7 2.8.9 3.9 1.7 1.1.7 2 3.2 3.7 1.7-.1-1.9-2.2-2-3.3-2.7-.7-.4-1.2-1.3-1.9-1.7-4.3-2.5-9-4.5-13.5-7-5.3-3-11.6-6-16.4-9.1 4.4.1 7.7 2.4 11.2 3.7 8 3 16.1 6.2 23.2 10.2.9.5 1.5 1.6 2.7 1.5.5-2.4-2-3.5-4.1-3.9-9.6-5.6-21.5-9-31.5-14.3 3-.7 4.6 1.8 7.7 1.7 2.1 1.6 5.2 2 7.9 3.1 5.8 2.3 11.7 4.5 17.4 6.8 1.4.7 2.8 2.5 4.8 2.1.1-1.4-1.4-2.4-2.5-2.9-4.9-2.4-10.6-3.7-16-5.6-2.6-.9-5-2.5-7.5-3.5-3.9-1.6-8.1-2.6-11.4-4.8 13.5 2.6 27.2 7.8 39.4 11.8.4-2.7-2.7-2.5-4.4-3.1-1.3-.5-2.4-1.6-3.5-1.9-1.3-.3-2.7-.3-3.9-.6-9.4-2.3-18.6-5.7-26.7-8.7 1.9-.9 3.6.7 5.4.8 8.8.7 15.7 2.6 23.6 4.4 2.1.4 4 1 6 1.5s3.9 1.2 5.8 1.4c.7-3.3-2.2-2.9-3.2-3.2z" fill="#4D293D"/><path d="M73.7 178.1c-.9-.2-1.7-1-1.7-2.4v-.7c0-.9 0-1.8.1-2.7.1-.7.5-1.3.7-1.8 0 0-.3-4-.5-5.3v-1.4c-1.1-2.6-.9-4.6.7-6.4 0-.1-.1-.2-.1-.3-.4-.9-.8-1.9-1.1-2.8-.4-1.5.3-3.3 1.6-4.5 0-.1-.1-.1-.1-.1-1.6-2-1.8-4.3-.6-6.4-.7-1-.5-2.1-.5-2.8v-.3c0-.4.1-.8.1-1.1.1-.8.2-1.6.2-2.3 0-1.6-.1-3.3-.1-4.9 0 0-.2-6.2-.3-8.3H72c-.7-.3-1.4-.5-2.1-.9-.8-.4-1.4-1.3-1.5-2.1-.2-2.7-.4-5-.4-7.1 0-1 .7-1.5 1.2-1.8.1-.1.2-.1.2-.2.2-.2.4-.3.6-.5 0 0 .1 0 .1-.1 0-.7 0-1.4-.1-2.2 0-.4-.1-.9-.1-1.3v-.9c0-1.1-.1-2.3-.1-3.4 0-1.3.1-2.6.2-3.9.1-1.3.1-2.6.2-3.9 0-.3 0-.7-.1-1-.1-.5-.1-1-.1-1.6 0-.6.1-1.1.2-1.7.1-.7.2-1.3.2-1.8-.2-2.2 1.3-2.5 1.8-2.7l.2-.1c.8-.2 1.6-.2 2.2-.2.7 0 1.4 0 2-.3 1.1-.5 2.3-.8 3.5-.8 1 0 2 .2 2.9.6h1.7c1.1 0 2.2 0 3.3.1 1.1.1 1.7 1 1.9 1.3.1.1.4.6 1.5.6 3.2 0 6.3-.2 9.3-.5h.5c1.3-.1 2-.2 2.5-.9 1.4-2 .7-3.9-.1-5.1-.8-1.2-1.2-2.6-1.6-3.8l-.1-.3c-.3-1-.3-2-.3-2.9l.1-2c.1-2.6.1-5.2.4-7.8.2-2.5.7-4.4 1.5-5.8.7-1.3.8-2.5.3-4.1-.1-.3-.4-.8-.6-.9-3.1-.6-5.8-1.1-8.6-1.1-5-.1-10.9-.4-16.8-2.1-3.6-1.1-5.7-3.1-6.4-6.3-.1-.3-.1-.6-.2-.9-.2-.7-.3-1.5-.4-2.2-.3-2.3-.5-4.5-.8-6.9l-.3-3.3v-.2h-.4c-1.6-.1-3.1-.2-4.6-.4-.6-.1-2.4-.6-2.7-1.9-.3-1-.3-2.3-.1-3.4.7-3.5 3-6 6.8-7.2 1.9-.6 3.6-.9 5.3-.9 1.9 0 3.8.4 5.6 1.2 2.8 1.2 4.6 2.9 5.7 5.4.9 2 .5 3.5.1 4.3-.5.8-1.5 1.9-3.9 2.2-.9.1-1.9.3-2.8.4h-.3v3.4c.1.8.1 1.8-.2 2.7-.5 1.4-.6 2.5-.4 3.7.7 3.5 2.8 3.8 3.5 3.9 1.7.3 3.7.5 5.9.6 1.1.1 2.4.1 3.9.1h2.7c.8 0 1.7 0 2.5-.1 1 0 2-.1 3-.1h.5c1.7 0 3.4 0 5.1.4 3.2.7 5.6 3.9 6 8.1 0 .2 0 .5.1.8.1 1.6.2 2.5 1.2 3 .8.6.8 1.5.8 1.9v.1l.1.8c0 .3.1.5.1.8.1.4.2.7.3 1.1.2.8.4 1.6.5 2.5.1.9.1 1.8.2 2.7.1 1.2.1 2.4.3 3.5.4 2.2.2 4.4-.5 6.7-.2.7-.5 1.3-.7 1.9-.3.7-.6 1.4-.8 2.1 0 .1-.1.3-.1.4-.2.9-.5 2.2-1.8 2.8 0 .2-.1.3-.1.5l-1.2 3.6c-.1.3-.2.7-.3 1v.1l-1.1-.4.9.8c-2.1 2.9-5.2 3.4-7.9 3.9l-1.8.3c-1.8.4-3.6.5-5.4.6-.7 0-1.3.1-2 .1-.4 0-.8 0-1.1.1H90c0 .1-.1.3-.1.4 0 .1-.1.3-.1.4l-.3 1.1h-5.1c-.2 0-1 0-1.6-.6h-.7c-.2 0-.6.1-1 .2l-.4.1c-.2 0-.3.1-.4.1 0 .2 0 .5.1.7v.2c.2 2 .3 4.1.3 6.1v.8c0 1.4 0 2.8.1 4.2v3.6c1.2 2 1.5 4.2 1.7 6 .1 1.4-.3 2.8-1.2 3.9-.6.7-1.4 1.1-2.2 1.4v1c.1 3 .3 6 .4 9l.3 6.9c.1 1.1-.2 1.9-.5 2.5 1.5 1.2 1.8 2.7 1.8 3.7 0 1.8-1.1 2.8-1.9 3.6l-.2.2.3.3c.7.6 1.1 1.5 1.2 2.6.1 1.1-.2 2.1-.7 2.8-.3.4-.6.7-.9 1.1.9.8 1.6 1.9 1.6 3.7 0 1.4-.5 2.5-1.1 3.2.3.3.5.6.7 1 1 2 .6 4.1-1 5.6h.2c.4 0 .7.1.9.2.1 0 .2.1.3.1l1.3.4-.4 2.5c-.2.9-.3 1.9-.5 2.8-.1.8-1 1.6-1.9 1.7-.4 0-.6.1-.7 1.1-.1.6-.2 1.1-.5 1.5-.2.3-.5.6-.8.9l-.3.3-2 2-1-5.9z" fill="#C08F60"/><path d="M73.9 18.1c1.7 0 3.3.3 5.1 1.1 2.3 1 3.9 2.3 5 4.7 1.1 2.4.1 4.1-2.6 4.4-1.5.2-2.9.5-4.4.7v3.9c0 1 .2 2.2-.1 3.1-.6 1.5-.8 3-.5 4.5.5 2.6 1.9 4.7 4.8 5.1 2 .3 4 .5 6.1.6 1.3.1 2.7.1 4 .1H94c1.8 0 3.6-.1 5.5-.1h.5c1.6 0 3.2 0 4.8.4 2.7.6 4.5 3.5 4.8 6.8.2 1.7.1 3.7 1.9 4.9.2.1.1.6.1 1 0 .3.1.6.1.8 0 .3.1.6.1.8.2 1.1.6 2.3.7 3.4.2 2.1.1 4.2.5 6.3.3 2.1.1 4-.5 6-.4 1.4-1.2 2.7-1.5 4.2-.2.9-.3 1.9-1.1 2.2-.8.3-.7.8-.8 1.4l-1.2 3.6c-.1.4-.3.8-.4 1.2-2.2 3-5.7 3-8.8 3.6-2.3.5-4.8.5-7.2.7-.8.1-1.7 0-2.5.1-.2 0-.4.5-.6.7-.1.3-.2.7-.3 1.1h-4c-.2 0-.4 0-.5-.1-.5-.5-.9-.7-1.4-.7-.5 0-1.1.2-1.7.4-1.7.5-1.5 1.3-1.4 2.6.2 2.2.3 4.5.3 6.7.1 2.3 0 4.6.1 6.9 0 .5-.1 1.2.1 1.6 1 1.7 1.4 3.5 1.6 5.5.2 2-1.3 3.8-3.3 3.8h-.2c0 .8-.1 1.6 0 2.4.2 5.3.5 10.6.8 15.9.1 1.3-.2 2.3-1.9 2.7 2 .6 3.1 1.7 3.2 3.5 0 1.8-1.8 2.5-2.6 3.9.4.4.9.9 1.4 1.3.8.7 1 2.5.3 3.3-.6.8-1.2 1.6-1.9 2.4 1.4.8 2.2 1.6 2.2 3.3 0 1.6-.8 2.5-1.7 3.2.5.6 1.2 1.1 1.5 1.7.7 1.4.5 2.8-.7 3.9-.7.6-.7 1.3-.3 2.1.2.5.5.6.8.6.2 0 .5-.1.7-.2h.1c.2 0 .5.1.8.2-.2 1.3-.4 2.6-.7 3.9 0 .2-.3.5-.5.5-1.5.2-2 1.2-2.1 2.5 0 .3-.1.6-.3.9-.2.3-.5.5-.9 1-.3-1.7-.6-3-.9-4.3-.3.1-.5.2-.7.2-.5 0-.7-.4-.7-1 0-1.1-.1-2.2.1-3.2.1-.6.5-1.2.8-1.7-.2-1.9-.3-3.8-.5-5.8-.1-.6.1-1.3-.2-1.8-1-2.4-.8-3.8 1-5.5-.5-1.3-1.2-2.6-1.5-3.9-.4-1.3.6-2.8 2-3.5-.2-.5-.4-1.2-.7-1.6-1.4-1.8-1.4-3.9.3-5.7-1.4-.5-1.1-1.6-1-2.7.1-1.2.3-2.4.3-3.5 0-2.2-.1-4.5-.2-6.7-.1-2.6-.2-5.1-.3-7.5-1.2-.5-2.1-.7-3-1.2-.3-.2-.6-.6-.6-.9-.2-2.3-.4-4.7-.4-7 0-.3.6-.6.9-.9.4-.4 1.2-.7 1.2-1.1.1-1.4-.1-2.7-.1-4.1 0-1.4-.1-2.8-.1-4.2l.3-7.8c0-.9-.2-1.8-.2-2.6.1-1.2.5-2.5.4-3.7-.1-1 .3-.9.9-1.1 1.4-.4 2.9.1 4.4-.6.8-.4 1.8-.6 2.8-.6.8 0 1.6.2 2.4.5.1.1.3.1.5.1h.9c1.3 0 2.7 0 4 .1.2 0 .5.3.7.6.7 1 1.8 1.3 2.8 1.3h.1c3.1 0 6.2-.2 9.3-.5 1.4-.1 3-.1 4-1.5 1.5-2.1 1.4-4.6-.1-6.8-.7-1.1-1.1-2.4-1.5-3.7-.2-.7-.2-1.6-.2-2.4.1-3.3.1-6.5.4-9.8.2-1.8.5-3.7 1.4-5.3 1-1.8.9-3.5.5-5.2-.2-.8-1-1.8-1.7-1.9-2.9-.6-5.9-1.1-8.9-1.2-5.6-.1-11.1-.5-16.4-2.1-2.7-.8-4.7-2.3-5.3-5.2-.2-1-.5-2-.6-3-.3-2.3-.5-4.6-.8-6.8-.2-1.6-.3-3.2-.4-4.7-2.2-.2-4.3-.3-6.3-.5-.5-.1-1.4-.4-1.5-.8-.2-.9-.3-1.9-.1-2.7.6-3.2 2.8-5.1 5.8-6 1.5-1.2 3.1-1.5 4.7-1.5m32.9 65.2c0-.1.1-.2.1-.3 0 .1-.1.2-.1.3m.5 5.6l.3-1.2-.3 1.2M73.9 15.1c-1.9 0-3.7.3-5.8 1-5.5 1.8-7.3 5.5-7.8 8.3-.3 1.4-.2 2.8.1 4.1.5 2 2.8 2.9 4 3 1.3.2 2.6.3 3.9.4.1.7.1 1.5.2 2.2.2 2.3.5 4.6.8 6.9.1.9.3 1.6.5 2.4.1.3.1.6.2.8.8 3.7 3.3 6.2 7.4 7.4 6.1 1.8 12.1 2.1 17.2 2.2 2.5 0 5 .5 7.8 1 .3 1.2.3 2-.2 2.9-.9 1.7-1.4 3.7-1.7 6.4-.2 2.7-.3 5.4-.4 8 0 .7 0 1.3-.1 2 0 1 0 2.2.3 3.3l.1.3c.4 1.3.9 2.9 1.8 4.2 1.1 1.6.6 2.7.1 3.4-.2.1-.9.2-1.4.2h-.5c-3 .3-6 .4-9 .5H91c-.4-.5-1.3-1.7-2.9-1.8-1.1-.1-2.3-.1-3.4-.1h-1.4c-1-.4-2.1-.6-3.2-.6-1.4 0-2.8.3-4.1.9-.3.1-.7.1-1.3.1-.7 0-1.6 0-2.6.3h-.2c-3 .7-3.1 3.2-3 4.3 0 .3-.1.9-.2 1.4-.1.5-.2 1.2-.2 1.8 0 .7 0 1.4.1 1.9 0 .3.1.6.1.8 0 1.3-.1 2.6-.2 3.8-.1 1.3-.1 2.6-.2 4 0 1.2 0 2.4.1 3.5v.9c0 .5 0 .9.1 1.4 0 .5.1.9.1 1.3-.1 0-.1.1-.2.1l-.1.1c-.5.4-1.8 1.3-1.8 3.1.1 2.2.2 4.4.4 7.2.1 1.4 1 2.7 2.3 3.3.5.2.9.4 1.4.6.1 1.8.1 3.7.2 5.5 0 .6 0 1.2.1 1.8.1 1.6.1 3.3.1 4.9 0 .6-.1 1.4-.2 2.1 0 .4-.1.8-.1 1.1v.3c-.1 1.1 0 2.1.3 2.9-.9 2-.7 4.3.4 6.3-1.2 1.5-1.7 3.4-1.2 5.1.3.9.6 1.7.9 2.5-1.4 2-1.5 4.3-.4 7v1.1c.1 1.4.2 2.7.3 4l.1.8c-.3.5-.6 1.1-.7 1.9-.1 1.1-.1 2.1-.1 3v.7c0 1.7.8 2.9 1.9 3.5l.4 2.2 1.1 5.5 4-4.1.3-.3c.3-.3.7-.6 1-1.1.4-.6.6-1.4.7-2.1 1.3-.4 2.3-1.5 2.6-2.8.2-1 .4-1.9.5-2.8.1-.4.1-.8.2-1.1l.5-2.7-2-.5c.7-1.6.7-3.5-.2-5.3-.1-.2-.2-.3-.2-.4.4-.8.8-1.9.8-3.1 0-1.6-.4-2.8-1.1-3.7 0 0 0-.1.1-.1.8-1 1.2-2.4 1.1-3.9-.1-1-.4-2-1-2.8.8-.9 1.5-2.1 1.5-3.8 0-1.6-.6-2.9-1.5-4 .2-.6.3-1.4.2-2.2-.1-2.3-.2-4.7-.3-7-.1-2.9-.3-5.9-.4-8.8.7-.3 1.3-.8 1.8-1.4 1.2-1.3 1.8-3.2 1.6-5-.2-1.9-.5-4.1-1.7-6.2v-3.2c0-1.4 0-2.8-.1-4.2v-.8c0-1.8-.1-3.7-.3-5.6.6.3 1.2.5 2 .5H90l.5-2h.8c.6-.1 1.3-.1 2-.1 1.8-.1 3.7-.2 5.6-.6.5-.1 1.1-.2 1.7-.3 2.8-.5 6.4-1.1 8.8-4.5l-1.8-1.5 2.1.7c.1-.4.3-.8.4-1.2.4-1.2.8-2.3 1.2-3.6 1.4-1 1.8-2.6 1.9-3.5 0-.1.1-.2.1-.4.1-.6.4-1.2.7-1.9.3-.6.5-1.3.8-2.1.8-2.5 1-4.9.6-7.4-.2-1-.2-2.1-.3-3.3 0-.9-.1-1.8-.2-2.8-.1-1-.3-1.9-.5-2.7-.1-.3-.2-.7-.2-1 0-.2-.1-.4-.1-.7l-.1-.4-.1-.3c0-.3 0-1-.3-1.7l-.2-.9h-.4c-.1-.2-.3-.3-.5-.4h-.2c-.3-.2-.4-.5-.5-1.9 0-.3 0-.5-.1-.8-.5-4.9-3.3-8.6-7.2-9.4-1.8-.4-3.7-.4-5.3-.4h-.6c-1 0-2 0-3 .1-.9 0-1.7.1-2.5.1h-2.6c-1.5 0-2.7 0-3.9-.1-2.2-.1-4.1-.3-5.7-.6-.6-.1-1.8-.3-2.3-2.8-.2-.9-.1-1.8.3-2.9.5-1.2.4-2.4.3-3.3v-2.1L81 31c3-.4 4.4-1.8 5-3 .6-1.1 1.1-3 0-5.6-1.3-2.9-3.3-4.8-6.5-6.2-1.3-.7-3.4-1.1-5.6-1.1z" fill="#421726"/></svg>